<svg width="300" height="80" viewBox="0 0 300 80" fill="none" xmlns="http://www.w3.org/2000/svg">
<path d="M119.458 33.048C129.346 33.048 135.106 27.768 135.106 21.72C135.106 16.104 128.434 12.12 119.458 12.12C114.706 12.12 108.178 14.28 108.178 22.536V45H118.69V26.856C118.69 20.664 112.834 20.952 111.682 18.12C111.202 16.92 111.538 14.952 114.754 14.952C117.298 14.952 120.754 17.064 122.722 20.04C126.706 26.136 124.066 32.088 119.458 32.088V33.048ZM136.819 45H147.331V28.488C147.331 25.08 144.451 25.08 141.907 24.696C139.171 24.264 137.587 23.448 136.819 22.44V45ZM148.243 17.832C148.243 14.424 145.795 12.072 142.099 12.072C138.403 12.072 135.955 14.424 135.955 17.832C135.955 21.192 138.403 23.544 142.099 23.544C145.795 23.544 148.243 21.192 148.243 17.832ZM176.162 36.696C171.698 42.936 166.082 43.896 160.034 34.296C155.954 27.864 153.794 22.584 156.77 21.192C161.378 19.032 160.034 30.936 168.098 30.936C174.338 30.936 176.066 24.312 175.346 19.032H174.29C174.29 21.192 173.81 22.488 172.034 22.488C169.634 22.488 167.426 18.696 162.962 18.696C155.426 18.696 149.282 24.168 149.282 31.992C149.282 39.864 155.042 45.336 163.586 45.336C170.882 45.336 174.05 42.168 177.17 37.416L176.162 36.696ZM191.187 45.336C200.211 45.336 206.835 41.976 206.835 36.36C206.835 31.8 202.467 29.256 196.035 28.44C201.123 27.288 204.387 24.744 204.387 20.76C204.387 15.144 197.763 12.12 188.739 12.12C183.987 12.12 177.459 14.28 177.459 22.536V45H186.243C187.779 45.192 189.459 45.336 191.187 45.336ZM188.547 28.248V29.304C190.851 29.304 193.491 30.84 195.651 34.296C198.147 38.376 197.667 42.552 195.843 43.56C193.443 44.856 190.803 43.896 187.971 40.632V26.856C187.971 20.664 182.163 20.952 180.963 18.12C180.483 16.92 180.867 14.952 184.035 14.952C186.579 14.952 189.795 16.296 192.003 19.08C196.419 24.6 193.827 28.152 188.547 28.248ZM222.931 18.696C214.339 18.696 208.579 24.168 208.579 31.992C208.579 39.864 214.339 45.336 222.931 45.336C231.475 45.336 237.235 39.864 237.235 31.992C237.235 24.168 231.475 18.696 222.931 18.696ZM229.747 42.792C227.011 44.52 223.411 40.68 219.331 34.296C215.251 27.864 213.331 22.968 216.067 21.192C218.803 19.464 222.403 23.304 226.483 29.736C230.515 36.12 232.531 41.064 229.747 42.792ZM252.649 18.696C244.057 18.696 238.297 24.168 238.297 31.992C238.297 39.864 244.057 45.336 252.649 45.336C261.193 45.336 266.953 39.864 266.953 31.992C266.953 24.168 261.193 18.696 252.649 18.696ZM259.465 42.792C256.729 44.52 253.129 40.68 249.049 34.296C244.969 27.864 243.049 22.968 245.785 21.192C248.521 19.464 252.121 23.304 256.201 29.736C260.233 36.12 262.249 41.064 259.465 42.792ZM281.104 32.616C281.104 38.76 278.992 43.848 274.384 43.848C268 43.848 269.632 37.8 272.896 36.552C275.44 35.544 279.424 34.248 279.424 27.864V20.184C279.424 13.944 270.112 19.128 270.112 12.456H268.912V45H274.384C280.336 45 282.256 39.24 282.256 32.808C282.256 32.376 282.256 31.944 282.304 31.56C287.104 33.432 281.056 39.096 284.08 42.84C287.824 47.496 295.312 44.664 298.96 39.864L298.192 39.096C295.792 41.544 294.112 41.688 292.384 37.56C290.512 33.144 286.816 32.136 282.544 30.456C282.832 29.64 283.408 29.064 284.416 29.064C286.816 29.064 287.632 31.608 290.752 31.608C294.64 31.608 296.08 27.864 296.08 19.032H294.832C294.832 20.904 294.352 22.68 293.056 22.68C291.28 22.68 290.176 18.312 285.856 18.696C281.488 19.032 281.104 25.032 281.104 32.616Z" fill="url(#paint0_linear)"/>
<path d="M107.182 70.054C107.074 70.054 106.996 70.018 106.948 69.946C106.888 69.862 106.858 69.766 106.858 69.658C106.87 69.478 106.906 69.37 106.966 69.334C107.026 69.298 107.098 69.28 107.182 69.28C107.266 69.28 107.32 69.28 107.344 69.28C107.704 69.28 107.968 69.19 108.136 69.01C108.304 68.818 108.436 68.608 108.532 68.38C108.64 68.14 108.712 67.978 108.748 67.894L111.898 60.442C111.97 60.262 112.006 60.118 112.006 60.01C112.006 59.794 111.922 59.638 111.754 59.542C111.586 59.446 111.352 59.368 111.052 59.308C110.848 59.272 110.722 59.236 110.674 59.2C110.626 59.164 110.602 59.062 110.602 58.894C110.602 58.75 110.638 58.654 110.71 58.606C110.794 58.558 110.92 58.534 111.088 58.534C111.688 58.534 112.162 58.582 112.51 58.678C112.87 58.762 113.182 58.942 113.446 59.218C113.71 59.482 113.956 59.89 114.184 60.442L117.208 67.894C117.388 68.35 117.562 68.692 117.73 68.92C117.898 69.148 118.15 69.268 118.486 69.28H118.594C118.714 69.28 118.798 69.304 118.846 69.352C118.894 69.388 118.924 69.49 118.936 69.658C118.936 69.766 118.906 69.862 118.846 69.946C118.798 70.018 118.72 70.054 118.612 70.054C117.844 70.018 117.184 70 116.632 70C115.912 70 115.168 70.018 114.4 70.054C114.292 70.054 114.208 70.018 114.148 69.946C114.1 69.862 114.076 69.766 114.076 69.658C114.088 69.49 114.118 69.388 114.166 69.352C114.214 69.304 114.298 69.28 114.418 69.28C114.826 69.28 115.114 69.244 115.282 69.172C115.45 69.088 115.534 68.944 115.534 68.74C115.534 68.584 115.462 68.302 115.318 67.894L114.706 66.4H110.26C109.96 67.144 109.786 67.576 109.738 67.696C109.702 67.816 109.684 67.882 109.684 67.894C109.54 68.35 109.468 68.644 109.468 68.776C109.468 68.98 109.558 69.118 109.738 69.19C109.918 69.25 110.26 69.28 110.764 69.28H110.872C110.992 69.28 111.076 69.304 111.124 69.352C111.172 69.388 111.202 69.49 111.214 69.658C111.214 69.766 111.184 69.862 111.124 69.946C111.076 70.018 110.998 70.054 110.89 70.054C110.122 70.018 109.468 70 108.928 70C108.544 70 107.962 70.018 107.182 70.054ZM110.602 65.626H114.382L112.564 61H112.51L110.602 65.626ZM123.106 70.216C122.434 70.216 121.81 70.036 121.234 69.676C120.658 69.304 120.196 68.794 119.848 68.146C119.5 67.486 119.326 66.742 119.326 65.914C119.326 65.17 119.506 64.468 119.866 63.808C120.226 63.148 120.724 62.62 121.36 62.224C121.996 61.828 122.704 61.63 123.484 61.63C123.856 61.63 124.228 61.678 124.6 61.774C124.972 61.858 125.296 61.978 125.572 62.134H125.626V59.38C125.626 59.068 125.614 58.84 125.59 58.696C125.578 58.552 125.506 58.426 125.374 58.318C125.242 58.21 125.02 58.156 124.708 58.156C124.564 58.156 124.456 58.138 124.384 58.102C124.312 58.054 124.276 57.952 124.276 57.796C124.276 57.724 124.3 57.658 124.348 57.598C124.396 57.526 124.468 57.484 124.564 57.472C125.32 57.364 125.968 57.208 126.508 57.004C126.676 56.944 126.814 56.908 126.922 56.896H126.976C127.168 56.896 127.264 57.01 127.264 57.238V68.344C127.264 69.052 127.732 69.406 128.668 69.406C128.872 69.406 128.974 69.502 128.974 69.694C128.974 69.862 128.872 69.964 128.668 70L125.806 70.198C125.722 70.198 125.674 70.168 125.662 70.108C125.65 70.06 125.644 69.97 125.644 69.838V69.118H125.59C125.278 69.442 124.894 69.706 124.438 69.91C123.994 70.114 123.55 70.216 123.106 70.216ZM123.718 69.316C124.138 69.316 124.492 69.238 124.78 69.082C125.08 68.914 125.362 68.692 125.626 68.416V63.664C125.518 63.316 125.29 62.998 124.942 62.71C124.606 62.422 124.18 62.278 123.664 62.278C123.196 62.278 122.77 62.428 122.386 62.728C122.014 63.016 121.72 63.442 121.504 64.006C121.288 64.57 121.18 65.236 121.18 66.004C121.18 66.928 121.396 67.714 121.828 68.362C122.272 68.998 122.902 69.316 123.718 69.316ZM133.547 70.216C132.875 70.216 132.251 70.036 131.675 69.676C131.099 69.304 130.637 68.794 130.289 68.146C129.941 67.486 129.767 66.742 129.767 65.914C129.767 65.17 129.947 64.468 130.307 63.808C130.667 63.148 131.165 62.62 131.801 62.224C132.437 61.828 133.145 61.63 133.925 61.63C134.297 61.63 134.669 61.678 135.041 61.774C135.413 61.858 135.737 61.978 136.013 62.134H136.067V59.38C136.067 59.068 136.055 58.84 136.031 58.696C136.019 58.552 135.947 58.426 135.815 58.318C135.683 58.21 135.461 58.156 135.149 58.156C135.005 58.156 134.897 58.138 134.825 58.102C134.753 58.054 134.717 57.952 134.717 57.796C134.717 57.724 134.741 57.658 134.789 57.598C134.837 57.526 134.909 57.484 135.005 57.472C135.761 57.364 136.409 57.208 136.949 57.004C137.117 56.944 137.255 56.908 137.363 56.896H137.417C137.609 56.896 137.705 57.01 137.705 57.238V68.344C137.705 69.052 138.173 69.406 139.109 69.406C139.313 69.406 139.415 69.502 139.415 69.694C139.415 69.862 139.313 69.964 139.109 70L136.247 70.198C136.163 70.198 136.115 70.168 136.103 70.108C136.091 70.06 136.085 69.97 136.085 69.838V69.118H136.031C135.719 69.442 135.335 69.706 134.879 69.91C134.435 70.114 133.991 70.216 133.547 70.216ZM134.159 69.316C134.579 69.316 134.933 69.238 135.221 69.082C135.521 68.914 135.803 68.692 136.067 68.416V63.664C135.959 63.316 135.731 62.998 135.383 62.71C135.047 62.422 134.621 62.278 134.105 62.278C133.637 62.278 133.211 62.428 132.827 62.728C132.455 63.016 132.161 63.442 131.945 64.006C131.729 64.57 131.621 65.236 131.621 66.004C131.621 66.928 131.837 67.714 132.269 68.362C132.713 68.998 133.343 69.316 134.159 69.316ZM140.352 70.054C140.268 70.054 140.196 70.018 140.136 69.946C140.088 69.874 140.064 69.79 140.064 69.694C140.076 69.538 140.112 69.448 140.172 69.424C140.232 69.388 140.34 69.37 140.496 69.37C140.808 69.37 141.03 69.316 141.162 69.208C141.294 69.1 141.366 68.974 141.378 68.83C141.402 68.686 141.414 68.458 141.414 68.146V64.024C141.414 63.712 141.402 63.484 141.378 63.34C141.366 63.196 141.294 63.07 141.162 62.962C141.03 62.854 140.808 62.8 140.496 62.8C140.352 62.8 140.244 62.782 140.172 62.746C140.1 62.698 140.064 62.596 140.064 62.44C140.064 62.368 140.088 62.302 140.136 62.242C140.184 62.17 140.256 62.128 140.352 62.116C141.108 62.008 141.756 61.852 142.296 61.648C142.464 61.588 142.602 61.552 142.71 61.54H142.764C142.956 61.54 143.052 61.654 143.052 61.882V68.146C143.052 68.458 143.064 68.686 143.088 68.83C143.112 68.974 143.19 69.1 143.322 69.208C143.454 69.316 143.676 69.37 143.988 69.37H144.096C144.192 69.37 144.264 69.388 144.312 69.424C144.36 69.46 144.39 69.55 144.402 69.694C144.402 69.79 144.378 69.874 144.33 69.946C144.282 70.018 144.21 70.054 144.114 70.054C143.418 70.018 142.788 70 142.224 70C141.684 70 141.06 70.018 140.352 70.054ZM142.134 59.542C141.798 59.542 141.516 59.44 141.288 59.236C141.06 59.02 140.946 58.756 140.946 58.444C140.946 58.168 141.084 57.922 141.36 57.706C141.636 57.49 141.948 57.382 142.296 57.382C142.596 57.382 142.842 57.49 143.034 57.706C143.226 57.91 143.322 58.174 143.322 58.498C143.322 58.786 143.208 59.032 142.98 59.236C142.752 59.44 142.47 59.542 142.134 59.542ZM145.591 70.054C145.507 70.054 145.435 70.018 145.375 69.946C145.327 69.874 145.303 69.79 145.303 69.694C145.315 69.538 145.351 69.448 145.411 69.424C145.471 69.388 145.579 69.37 145.735 69.37C146.047 69.37 146.269 69.316 146.401 69.208C146.533 69.1 146.605 68.974 146.617 68.83C146.641 68.686 146.653 68.458 146.653 68.146V64.024C146.653 63.712 146.641 63.484 146.617 63.34C146.605 63.196 146.533 63.07 146.401 62.962C146.269 62.854 146.047 62.8 145.735 62.8C145.591 62.8 145.483 62.782 145.411 62.746C145.339 62.698 145.303 62.596 145.303 62.44C145.303 62.368 145.327 62.302 145.375 62.242C145.423 62.17 145.495 62.128 145.591 62.116C146.371 61.996 147.013 61.84 147.517 61.648C147.721 61.588 147.859 61.552 147.931 61.54H147.985C148.177 61.54 148.273 61.654 148.273 61.882V63.016H148.327C148.675 62.692 148.957 62.446 149.173 62.278C149.389 62.098 149.665 61.948 150.001 61.828C150.349 61.696 150.757 61.63 151.225 61.63C152.041 61.63 152.689 61.876 153.169 62.368C153.649 62.86 153.889 63.508 153.889 64.312V68.146C153.889 68.458 153.901 68.686 153.925 68.83C153.949 68.974 154.027 69.1 154.159 69.208C154.291 69.316 154.513 69.37 154.825 69.37H154.933C155.029 69.37 155.101 69.388 155.149 69.424C155.197 69.46 155.227 69.55 155.239 69.694C155.239 69.79 155.209 69.874 155.149 69.946C155.101 70.018 155.035 70.054 154.951 70.054C154.255 70.018 153.625 70 153.061 70C152.521 70 151.897 70.018 151.189 70.054C151.105 70.054 151.033 70.018 150.973 69.946C150.925 69.874 150.901 69.79 150.901 69.694C150.913 69.538 150.943 69.448 150.991 69.424C151.051 69.388 151.159 69.37 151.315 69.37C151.627 69.37 151.849 69.316 151.981 69.208C152.113 69.1 152.191 68.974 152.215 68.83C152.239 68.686 152.251 68.458 152.251 68.146V64.33C152.251 63.778 152.077 63.358 151.729 63.07C151.381 62.77 150.979 62.62 150.523 62.62C149.971 62.62 149.497 62.758 149.101 63.034C148.705 63.298 148.435 63.574 148.291 63.862V68.146C148.291 68.458 148.303 68.686 148.327 68.83C148.351 68.974 148.429 69.1 148.561 69.208C148.693 69.316 148.915 69.37 149.227 69.37H149.335C149.431 69.37 149.503 69.388 149.551 69.424C149.599 69.46 149.629 69.55 149.641 69.694C149.641 69.79 149.617 69.874 149.569 69.946C149.521 70.018 149.449 70.054 149.353 70.054C148.657 70.018 148.027 70 147.463 70C146.923 70 146.299 70.018 145.591 70.054ZM159.768 73.924C157.236 73.924 155.97 73.204 155.97 71.764C155.97 71.356 156.096 71.002 156.348 70.702C156.612 70.402 156.948 70.252 157.356 70.252C157.524 70.252 157.68 70.282 157.824 70.342C157.968 70.414 158.082 70.492 158.166 70.576C158.262 70.672 158.31 70.744 158.31 70.792C158.31 70.804 158.256 70.858 158.148 70.954C158.052 71.062 157.962 71.188 157.878 71.332C157.806 71.488 157.77 71.668 157.77 71.872C157.77 72.796 158.562 73.258 160.146 73.258C161.058 73.258 161.76 73.096 162.252 72.772C162.744 72.46 162.99 71.992 162.99 71.368C162.99 70.984 162.846 70.696 162.558 70.504C162.27 70.312 161.91 70.186 161.478 70.126C161.046 70.078 160.482 70.048 159.786 70.036C158.934 70.012 158.328 69.97 157.968 69.91C157.5 69.826 157.134 69.676 156.87 69.46C156.618 69.244 156.492 68.908 156.492 68.452C156.492 67.984 156.654 67.594 156.978 67.282C157.314 66.958 157.788 66.796 158.4 66.796C157.692 66.52 157.194 66.178 156.906 65.77C156.618 65.35 156.474 64.882 156.474 64.366C156.474 63.85 156.618 63.382 156.906 62.962C157.206 62.542 157.62 62.212 158.148 61.972C158.676 61.732 159.276 61.612 159.948 61.612C160.812 61.612 161.478 61.732 161.946 61.972L164.412 61.504H164.448C164.652 61.504 164.754 61.648 164.754 61.936C164.754 62.104 164.724 62.26 164.664 62.404C164.616 62.548 164.556 62.62 164.484 62.62L162.702 62.548V62.584C162.906 62.788 163.08 63.058 163.224 63.394C163.368 63.73 163.44 64.048 163.44 64.348C163.44 64.9 163.278 65.392 162.954 65.824C162.642 66.244 162.228 66.568 161.712 66.796C161.196 67.024 160.656 67.138 160.092 67.138H159.3C158.676 67.138 158.22 67.198 157.932 67.318C157.656 67.438 157.518 67.636 157.518 67.912C157.518 68.14 157.596 68.308 157.752 68.416C157.908 68.524 158.178 68.59 158.562 68.614L161.028 68.704C162.288 68.752 163.194 68.956 163.746 69.316C164.31 69.664 164.592 70.198 164.592 70.918C164.592 71.854 164.154 72.586 163.278 73.114C162.402 73.654 161.232 73.924 159.768 73.924ZM159.948 66.616C160.512 66.616 160.962 66.418 161.298 66.022C161.646 65.614 161.82 65.056 161.82 64.348C161.82 63.688 161.64 63.16 161.28 62.764C160.932 62.368 160.482 62.17 159.93 62.17C159.39 62.17 158.946 62.362 158.598 62.746C158.25 63.13 158.076 63.652 158.076 64.312C158.076 65.032 158.25 65.596 158.598 66.004C158.946 66.412 159.396 66.616 159.948 66.616ZM169.616 70.054C169.532 70.054 169.46 70.018 169.4 69.946C169.352 69.874 169.328 69.79 169.328 69.694C169.34 69.538 169.37 69.448 169.418 69.424C169.478 69.388 169.586 69.37 169.742 69.37C170.054 69.37 170.276 69.316 170.408 69.208C170.54 69.1 170.618 68.974 170.642 68.83C170.666 68.686 170.678 68.458 170.678 68.146V59.362C170.678 59.05 170.666 58.822 170.642 58.678C170.63 58.534 170.558 58.408 170.426 58.3C170.294 58.192 170.072 58.138 169.76 58.138C169.616 58.138 169.508 58.12 169.436 58.084C169.364 58.036 169.328 57.934 169.328 57.778C169.328 57.706 169.352 57.64 169.4 57.58C169.448 57.508 169.52 57.466 169.616 57.454C170.372 57.346 171.02 57.19 171.56 56.986C171.728 56.926 171.866 56.89 171.974 56.878H172.028C172.22 56.878 172.316 56.992 172.316 57.22V68.146C172.316 68.458 172.328 68.686 172.352 68.83C172.376 68.974 172.454 69.1 172.586 69.208C172.718 69.316 172.94 69.37 173.252 69.37H173.36C173.456 69.37 173.528 69.388 173.576 69.424C173.624 69.46 173.654 69.55 173.666 69.694C173.666 69.79 173.642 69.874 173.594 69.946C173.546 70.018 173.474 70.054 173.378 70.054C172.682 70.018 172.052 70 171.488 70C170.948 70 170.324 70.018 169.616 70.054ZM174.946 70.054C174.862 70.054 174.79 70.018 174.73 69.946C174.682 69.874 174.658 69.79 174.658 69.694C174.67 69.538 174.706 69.448 174.766 69.424C174.826 69.388 174.934 69.37 175.09 69.37C175.402 69.37 175.624 69.316 175.756 69.208C175.888 69.1 175.96 68.974 175.972 68.83C175.996 68.686 176.008 68.458 176.008 68.146V64.024C176.008 63.712 175.996 63.484 175.972 63.34C175.96 63.196 175.888 63.07 175.756 62.962C175.624 62.854 175.402 62.8 175.09 62.8C174.946 62.8 174.838 62.782 174.766 62.746C174.694 62.698 174.658 62.596 174.658 62.44C174.658 62.368 174.682 62.302 174.73 62.242C174.778 62.17 174.85 62.128 174.946 62.116C175.702 62.008 176.35 61.852 176.89 61.648C177.058 61.588 177.196 61.552 177.304 61.54H177.358C177.55 61.54 177.646 61.654 177.646 61.882V68.146C177.646 68.458 177.658 68.686 177.682 68.83C177.706 68.974 177.784 69.1 177.916 69.208C178.048 69.316 178.27 69.37 178.582 69.37H178.69C178.786 69.37 178.858 69.388 178.906 69.424C178.954 69.46 178.984 69.55 178.996 69.694C178.996 69.79 178.972 69.874 178.924 69.946C178.876 70.018 178.804 70.054 178.708 70.054C178.012 70.018 177.382 70 176.818 70C176.278 70 175.654 70.018 174.946 70.054ZM176.728 59.542C176.392 59.542 176.11 59.44 175.882 59.236C175.654 59.02 175.54 58.756 175.54 58.444C175.54 58.168 175.678 57.922 175.954 57.706C176.23 57.49 176.542 57.382 176.89 57.382C177.19 57.382 177.436 57.49 177.628 57.706C177.82 57.91 177.916 58.174 177.916 58.498C177.916 58.786 177.802 59.032 177.574 59.236C177.346 59.44 177.064 59.542 176.728 59.542ZM180.434 70.054C180.338 70.054 180.266 70.018 180.218 69.946C180.17 69.874 180.146 69.79 180.146 69.694C180.158 69.538 180.188 69.448 180.236 69.424C180.296 69.388 180.404 69.37 180.56 69.37C180.872 69.37 181.094 69.316 181.226 69.208C181.358 69.1 181.43 68.98 181.442 68.848C181.466 68.704 181.478 68.47 181.478 68.146V62.548H180.272C180.176 62.548 180.098 62.512 180.038 62.44C179.99 62.368 179.966 62.284 179.966 62.188C179.978 62.02 180.014 61.924 180.074 61.9C180.134 61.864 180.242 61.846 180.398 61.846H181.478V61.09C181.478 59.854 181.766 58.852 182.342 58.084C182.93 57.304 183.752 56.902 184.808 56.878C185.396 56.878 185.924 57.046 186.392 57.382C186.86 57.706 187.094 58.126 187.094 58.642C187.094 59.002 186.986 59.32 186.77 59.596C186.566 59.86 186.278 59.992 185.906 59.992C185.69 59.992 185.504 59.932 185.348 59.812C185.192 59.692 185.114 59.596 185.114 59.524C185.114 59.512 185.168 59.452 185.276 59.344C185.396 59.236 185.498 59.11 185.582 58.966C185.678 58.81 185.726 58.63 185.726 58.426C185.726 58.162 185.624 57.94 185.42 57.76C185.228 57.568 184.982 57.472 184.682 57.472C184.202 57.472 183.848 57.658 183.62 58.03C183.392 58.402 183.254 58.81 183.206 59.254C183.158 59.686 183.134 60.19 183.134 60.766V61.846H184.898H185.006C185.114 61.846 185.192 61.87 185.24 61.918C185.3 61.954 185.336 62.044 185.348 62.188C185.348 62.284 185.318 62.368 185.258 62.44C185.198 62.512 185.126 62.548 185.042 62.548H183.134V68.146C183.134 68.518 183.164 68.788 183.224 68.956C183.284 69.112 183.398 69.22 183.566 69.28C183.734 69.34 184.016 69.37 184.412 69.37H184.52C184.628 69.37 184.7 69.388 184.736 69.424C184.784 69.46 184.814 69.55 184.826 69.694C184.826 69.79 184.802 69.874 184.754 69.946C184.706 70.018 184.64 70.054 184.556 70.054C183.86 70.018 183.11 70 182.306 70C181.742 70 181.118 70.018 180.434 70.054ZM190.299 70.216C189.399 70.216 188.631 70.024 187.995 69.64C187.371 69.256 186.897 68.734 186.573 68.074C186.249 67.414 186.087 66.682 186.087 65.878C186.087 65.17 186.249 64.492 186.573 63.844C186.909 63.184 187.383 62.65 187.995 62.242C188.607 61.834 189.309 61.63 190.101 61.63C191.169 61.63 191.991 61.906 192.567 62.458C193.143 62.998 193.473 63.73 193.557 64.654C193.557 65.05 193.449 65.32 193.233 65.464C193.017 65.608 192.705 65.68 192.297 65.68H187.923C187.923 66.796 188.151 67.684 188.607 68.344C189.075 68.992 189.795 69.316 190.767 69.316C191.283 69.316 191.721 69.208 192.081 68.992C192.441 68.764 192.783 68.386 193.107 67.858C193.167 67.798 193.227 67.768 193.287 67.768C193.371 67.768 193.443 67.792 193.503 67.84C193.623 67.912 193.683 68.02 193.683 68.164C193.683 68.236 193.671 68.29 193.647 68.326C193.275 68.926 192.801 69.394 192.225 69.73C191.661 70.054 191.019 70.216 190.299 70.216ZM190.857 64.996C191.469 64.996 191.793 64.744 191.829 64.24C191.829 63.688 191.679 63.22 191.379 62.836C191.079 62.452 190.653 62.26 190.101 62.26C189.489 62.26 188.985 62.506 188.589 62.998C188.193 63.478 187.971 64.144 187.923 64.996H190.857ZM202.28 70.306C201.692 70.306 201.188 70.09 200.768 69.658C200.348 69.226 200.138 68.608 200.138 67.804V62.512L199.094 62.548C199.022 62.548 198.962 62.518 198.914 62.458C198.866 62.386 198.842 62.308 198.842 62.224C198.842 62.116 198.86 62.026 198.896 61.954C198.944 61.87 199.01 61.822 199.094 61.81C199.514 61.726 199.838 61.594 200.066 61.414C200.306 61.222 200.48 61.018 200.588 60.802C200.696 60.574 200.828 60.232 200.984 59.776C201.044 59.62 201.176 59.542 201.38 59.542C201.464 59.542 201.548 59.566 201.632 59.614C201.716 59.65 201.758 59.71 201.758 59.794L201.632 61.846L203.738 61.72H203.774C203.93 61.72 204.008 61.834 204.008 62.062C204.008 62.194 203.984 62.32 203.936 62.44C203.9 62.548 203.852 62.602 203.792 62.602L201.776 62.548V68.02C201.776 68.416 201.854 68.746 202.01 69.01C202.178 69.274 202.448 69.406 202.82 69.406C203.192 69.406 203.522 69.34 203.81 69.208C203.966 69.148 204.062 69.118 204.098 69.118C204.182 69.118 204.248 69.154 204.296 69.226C204.344 69.286 204.392 69.37 204.44 69.478C204.452 69.502 204.458 69.532 204.458 69.568C204.458 69.616 204.422 69.67 204.35 69.73C204.002 69.958 203.672 70.108 203.36 70.18C203.06 70.264 202.7 70.306 202.28 70.306ZM210.145 70.216C209.329 70.216 208.603 70.024 207.967 69.64C207.331 69.244 206.833 68.728 206.473 68.092C206.125 67.444 205.951 66.76 205.951 66.04C205.951 65.14 206.161 64.36 206.581 63.7C207.001 63.028 207.535 62.518 208.183 62.17C208.831 61.81 209.485 61.63 210.145 61.63C210.961 61.63 211.687 61.828 212.323 62.224C212.959 62.608 213.451 63.124 213.799 63.772C214.159 64.408 214.339 65.086 214.339 65.806C214.339 66.706 214.123 67.492 213.691 68.164C213.271 68.824 212.737 69.334 212.089 69.694C211.441 70.042 210.793 70.216 210.145 70.216ZM210.145 69.55C210.961 69.55 211.555 69.202 211.927 68.506C212.311 67.81 212.503 66.91 212.503 65.806C212.503 64.774 212.305 63.934 211.909 63.286C211.525 62.626 210.937 62.296 210.145 62.296C209.317 62.296 208.717 62.638 208.345 63.322C207.973 64.006 207.787 64.9 207.787 66.004C207.787 67.036 207.979 67.888 208.363 68.56C208.747 69.22 209.341 69.55 210.145 69.55ZM219.982 70.054C219.898 70.054 219.826 70.018 219.766 69.946C219.718 69.874 219.694 69.79 219.694 69.694C219.706 69.538 219.736 69.448 219.784 69.424C219.844 69.388 219.952 69.37 220.108 69.37C220.42 69.37 220.642 69.316 220.774 69.208C220.906 69.1 220.984 68.974 221.008 68.83C221.032 68.686 221.044 68.458 221.044 68.146V64.024C221.044 63.712 221.032 63.484 221.008 63.34C220.996 63.196 220.924 63.07 220.792 62.962C220.66 62.854 220.438 62.8 220.126 62.8C219.982 62.8 219.874 62.782 219.802 62.746C219.73 62.698 219.694 62.596 219.694 62.44C219.694 62.368 219.718 62.302 219.766 62.242C219.814 62.17 219.886 62.128 219.982 62.116C220.762 61.996 221.404 61.84 221.908 61.648C222.112 61.588 222.25 61.552 222.322 61.54H222.376C222.568 61.54 222.664 61.654 222.664 61.882V63.016H222.718C222.79 62.944 222.97 62.77 223.258 62.494C223.546 62.206 223.87 61.99 224.23 61.846C224.602 61.702 225.022 61.63 225.49 61.63C226.066 61.63 226.564 61.756 226.984 62.008C227.404 62.248 227.716 62.584 227.92 63.016H227.956C228.424 62.572 228.868 62.23 229.288 61.99C229.72 61.75 230.272 61.63 230.944 61.63C231.76 61.63 232.408 61.876 232.888 62.368C233.368 62.86 233.608 63.508 233.608 64.312V68.146C233.608 68.458 233.62 68.686 233.644 68.83C233.668 68.974 233.746 69.1 233.878 69.208C234.01 69.316 234.232 69.37 234.544 69.37H234.652C234.748 69.37 234.82 69.388 234.868 69.424C234.916 69.46 234.946 69.55 234.958 69.694C234.958 69.79 234.928 69.874 234.868 69.946C234.82 70.018 234.754 70.054 234.67 70.054C233.974 70.018 233.344 70 232.78 70C232.24 70 231.616 70.018 230.908 70.054C230.812 70.054 230.74 70.018 230.692 69.946C230.644 69.874 230.62 69.79 230.62 69.694C230.632 69.538 230.662 69.448 230.71 69.424C230.77 69.388 230.878 69.37 231.034 69.37C231.346 69.37 231.568 69.316 231.7 69.208C231.832 69.1 231.91 68.974 231.934 68.83C231.958 68.686 231.97 68.458 231.97 68.146V64.33C231.97 63.778 231.796 63.358 231.448 63.07C231.1 62.77 230.698 62.62 230.242 62.62C229.69 62.62 229.24 62.752 228.892 63.016C228.544 63.28 228.298 63.562 228.154 63.862V68.146C228.154 68.218 228.148 68.38 228.136 68.632C228.136 68.884 228.202 69.07 228.334 69.19C228.478 69.31 228.706 69.37 229.018 69.37H229.126C229.234 69.37 229.306 69.388 229.342 69.424C229.39 69.46 229.42 69.55 229.432 69.694C229.432 69.79 229.408 69.874 229.36 69.946C229.312 70.018 229.24 70.054 229.144 70.054C228.436 70.018 227.824 70 227.308 70C226.816 70 226.216 70.018 225.508 70.054C225.412 70.054 225.34 70.018 225.292 69.946C225.244 69.874 225.22 69.79 225.22 69.694C225.232 69.538 225.262 69.448 225.31 69.424C225.37 69.388 225.478 69.37 225.634 69.37C226.03 69.37 226.276 69.292 226.372 69.136C226.468 68.968 226.51 68.782 226.498 68.578C226.498 68.362 226.498 68.218 226.498 68.146V64.33C226.498 63.778 226.324 63.358 225.976 63.07C225.64 62.77 225.244 62.62 224.788 62.62C224.236 62.62 223.786 62.752 223.438 63.016C223.09 63.28 222.838 63.562 222.682 63.862V68.146C222.682 68.458 222.694 68.686 222.718 68.83C222.742 68.974 222.82 69.1 222.952 69.208C223.084 69.316 223.306 69.37 223.618 69.37H223.726C223.822 69.37 223.894 69.388 223.942 69.424C223.99 69.46 224.02 69.55 224.032 69.694C224.032 69.79 224.008 69.874 223.96 69.946C223.912 70.018 223.84 70.054 223.744 70.054C223.048 70.018 222.418 70 221.854 70C221.314 70 220.69 70.018 219.982 70.054ZM240.08 70.216C239.264 70.216 238.538 70.024 237.902 69.64C237.266 69.244 236.768 68.728 236.408 68.092C236.06 67.444 235.886 66.76 235.886 66.04C235.886 65.14 236.096 64.36 236.516 63.7C236.936 63.028 237.47 62.518 238.118 62.17C238.766 61.81 239.42 61.63 240.08 61.63C240.896 61.63 241.622 61.828 242.258 62.224C242.894 62.608 243.386 63.124 243.734 63.772C244.094 64.408 244.274 65.086 244.274 65.806C244.274 66.706 244.058 67.492 243.626 68.164C243.206 68.824 242.672 69.334 242.024 69.694C241.376 70.042 240.728 70.216 240.08 70.216ZM240.08 69.55C240.896 69.55 241.49 69.202 241.862 68.506C242.246 67.81 242.438 66.91 242.438 65.806C242.438 64.774 242.24 63.934 241.844 63.286C241.46 62.626 240.872 62.296 240.08 62.296C239.252 62.296 238.652 62.638 238.28 63.322C237.908 64.006 237.722 64.9 237.722 66.004C237.722 67.036 237.914 67.888 238.298 68.56C238.682 69.22 239.276 69.55 240.08 69.55ZM245.804 70.054C245.72 70.054 245.648 70.018 245.588 69.946C245.54 69.874 245.516 69.79 245.516 69.694C245.528 69.538 245.558 69.448 245.606 69.424C245.666 69.388 245.774 69.37 245.93 69.37C246.242 69.37 246.464 69.316 246.596 69.208C246.728 69.1 246.806 68.974 246.83 68.83C246.854 68.686 246.866 68.458 246.866 68.146V64.024C246.866 63.712 246.854 63.484 246.83 63.34C246.818 63.196 246.746 63.07 246.614 62.962C246.482 62.854 246.26 62.8 245.948 62.8C245.804 62.8 245.696 62.782 245.624 62.746C245.552 62.698 245.516 62.596 245.516 62.44C245.516 62.368 245.54 62.302 245.588 62.242C245.636 62.17 245.708 62.128 245.804 62.116C246.584 61.996 247.226 61.84 247.73 61.648C247.934 61.588 248.072 61.552 248.144 61.54H248.198C248.39 61.54 248.486 61.654 248.486 61.882V63.016H248.54C248.612 62.944 248.792 62.77 249.08 62.494C249.368 62.206 249.692 61.99 250.052 61.846C250.424 61.702 250.844 61.63 251.312 61.63C251.888 61.63 252.386 61.756 252.806 62.008C253.226 62.248 253.538 62.584 253.742 63.016H253.778C254.246 62.572 254.69 62.23 255.11 61.99C255.542 61.75 256.094 61.63 256.766 61.63C257.582 61.63 258.23 61.876 258.71 62.368C259.19 62.86 259.43 63.508 259.43 64.312V68.146C259.43 68.458 259.442 68.686 259.466 68.83C259.49 68.974 259.568 69.1 259.7 69.208C259.832 69.316 260.054 69.37 260.366 69.37H260.474C260.57 69.37 260.642 69.388 260.69 69.424C260.738 69.46 260.768 69.55 260.78 69.694C260.78 69.79 260.75 69.874 260.69 69.946C260.642 70.018 260.576 70.054 260.492 70.054C259.796 70.018 259.166 70 258.602 70C258.062 70 257.438 70.018 256.73 70.054C256.634 70.054 256.562 70.018 256.514 69.946C256.466 69.874 256.442 69.79 256.442 69.694C256.454 69.538 256.484 69.448 256.532 69.424C256.592 69.388 256.7 69.37 256.856 69.37C257.168 69.37 257.39 69.316 257.522 69.208C257.654 69.1 257.732 68.974 257.756 68.83C257.78 68.686 257.792 68.458 257.792 68.146V64.33C257.792 63.778 257.618 63.358 257.27 63.07C256.922 62.77 256.52 62.62 256.064 62.62C255.512 62.62 255.062 62.752 254.714 63.016C254.366 63.28 254.12 63.562 253.976 63.862V68.146C253.976 68.218 253.97 68.38 253.958 68.632C253.958 68.884 254.024 69.07 254.156 69.19C254.3 69.31 254.528 69.37 254.84 69.37H254.948C255.056 69.37 255.128 69.388 255.164 69.424C255.212 69.46 255.242 69.55 255.254 69.694C255.254 69.79 255.23 69.874 255.182 69.946C255.134 70.018 255.062 70.054 254.966 70.054C254.258 70.018 253.646 70 253.13 70C252.638 70 252.038 70.018 251.33 70.054C251.234 70.054 251.162 70.018 251.114 69.946C251.066 69.874 251.042 69.79 251.042 69.694C251.054 69.538 251.084 69.448 251.132 69.424C251.192 69.388 251.3 69.37 251.456 69.37C251.852 69.37 252.098 69.292 252.194 69.136C252.29 68.968 252.332 68.782 252.32 68.578C252.32 68.362 252.32 68.218 252.32 68.146V64.33C252.32 63.778 252.146 63.358 251.798 63.07C251.462 62.77 251.066 62.62 250.61 62.62C250.058 62.62 249.608 62.752 249.26 63.016C248.912 63.28 248.66 63.562 248.504 63.862V68.146C248.504 68.458 248.516 68.686 248.54 68.83C248.564 68.974 248.642 69.1 248.774 69.208C248.906 69.316 249.128 69.37 249.44 69.37H249.548C249.644 69.37 249.716 69.388 249.764 69.424C249.812 69.46 249.842 69.55 249.854 69.694C249.854 69.79 249.83 69.874 249.782 69.946C249.734 70.018 249.662 70.054 249.566 70.054C248.87 70.018 248.24 70 247.676 70C247.136 70 246.512 70.018 245.804 70.054ZM265.92 70.216C265.02 70.216 264.252 70.024 263.616 69.64C262.992 69.256 262.518 68.734 262.194 68.074C261.87 67.414 261.708 66.682 261.708 65.878C261.708 65.17 261.87 64.492 262.194 63.844C262.53 63.184 263.004 62.65 263.616 62.242C264.228 61.834 264.93 61.63 265.722 61.63C266.79 61.63 267.612 61.906 268.188 62.458C268.764 62.998 269.094 63.73 269.178 64.654C269.178 65.05 269.07 65.32 268.854 65.464C268.638 65.608 268.326 65.68 267.918 65.68H263.544C263.544 66.796 263.772 67.684 264.228 68.344C264.696 68.992 265.416 69.316 266.388 69.316C266.904 69.316 267.342 69.208 267.702 68.992C268.062 68.764 268.404 68.386 268.728 67.858C268.788 67.798 268.848 67.768 268.908 67.768C268.992 67.768 269.064 67.792 269.124 67.84C269.244 67.912 269.304 68.02 269.304 68.164C269.304 68.236 269.292 68.29 269.268 68.326C268.896 68.926 268.422 69.394 267.846 69.73C267.282 70.054 266.64 70.216 265.92 70.216ZM266.478 64.996C267.09 64.996 267.414 64.744 267.45 64.24C267.45 63.688 267.3 63.22 267 62.836C266.7 62.452 266.274 62.26 265.722 62.26C265.11 62.26 264.606 62.506 264.21 62.998C263.814 63.478 263.592 64.144 263.544 64.996H266.478ZM270.888 70.054C270.804 70.054 270.732 70.018 270.672 69.946C270.624 69.874 270.6 69.79 270.6 69.694C270.612 69.538 270.648 69.448 270.708 69.424C270.768 69.388 270.876 69.37 271.032 69.37C271.344 69.37 271.566 69.316 271.698 69.208C271.83 69.1 271.902 68.974 271.914 68.83C271.938 68.686 271.95 68.458 271.95 68.146V64.024C271.95 63.712 271.938 63.484 271.914 63.34C271.902 63.196 271.83 63.07 271.698 62.962C271.566 62.854 271.344 62.8 271.032 62.8C270.888 62.8 270.78 62.782 270.708 62.746C270.636 62.698 270.6 62.596 270.6 62.44C270.6 62.368 270.624 62.302 270.672 62.242C270.72 62.17 270.792 62.128 270.888 62.116C271.668 61.996 272.31 61.84 272.814 61.648C273.018 61.588 273.156 61.552 273.228 61.54H273.282C273.474 61.54 273.57 61.654 273.57 61.882V63.016H273.624C273.972 62.692 274.254 62.446 274.47 62.278C274.686 62.098 274.962 61.948 275.298 61.828C275.646 61.696 276.054 61.63 276.522 61.63C277.338 61.63 277.986 61.876 278.466 62.368C278.946 62.86 279.186 63.508 279.186 64.312V68.146C279.186 68.458 279.198 68.686 279.222 68.83C279.246 68.974 279.324 69.1 279.456 69.208C279.588 69.316 279.81 69.37 280.122 69.37H280.23C280.326 69.37 280.398 69.388 280.446 69.424C280.494 69.46 280.524 69.55 280.536 69.694C280.536 69.79 280.506 69.874 280.446 69.946C280.398 70.018 280.332 70.054 280.248 70.054C279.552 70.018 278.922 70 278.358 70C277.818 70 277.194 70.018 276.486 70.054C276.402 70.054 276.33 70.018 276.27 69.946C276.222 69.874 276.198 69.79 276.198 69.694C276.21 69.538 276.24 69.448 276.288 69.424C276.348 69.388 276.456 69.37 276.612 69.37C276.924 69.37 277.146 69.316 277.278 69.208C277.41 69.1 277.488 68.974 277.512 68.83C277.536 68.686 277.548 68.458 277.548 68.146V64.33C277.548 63.778 277.374 63.358 277.026 63.07C276.678 62.77 276.276 62.62 275.82 62.62C275.268 62.62 274.794 62.758 274.398 63.034C274.002 63.298 273.732 63.574 273.588 63.862V68.146C273.588 68.458 273.6 68.686 273.624 68.83C273.648 68.974 273.726 69.1 273.858 69.208C273.99 69.316 274.212 69.37 274.524 69.37H274.632C274.728 69.37 274.8 69.388 274.848 69.424C274.896 69.46 274.926 69.55 274.938 69.694C274.938 69.79 274.914 69.874 274.866 69.946C274.818 70.018 274.746 70.054 274.65 70.054C273.954 70.018 273.324 70 272.76 70C272.22 70 271.596 70.018 270.888 70.054ZM284.546 70.306C283.958 70.306 283.454 70.09 283.034 69.658C282.614 69.226 282.404 68.608 282.404 67.804V62.512L281.36 62.548C281.288 62.548 281.228 62.518 281.18 62.458C281.132 62.386 281.108 62.308 281.108 62.224C281.108 62.116 281.126 62.026 281.162 61.954C281.21 61.87 281.276 61.822 281.36 61.81C281.78 61.726 282.104 61.594 282.332 61.414C282.572 61.222 282.746 61.018 282.854 60.802C282.962 60.574 283.094 60.232 283.25 59.776C283.31 59.62 283.442 59.542 283.646 59.542C283.73 59.542 283.814 59.566 283.898 59.614C283.982 59.65 284.024 59.71 284.024 59.794L283.898 61.846L286.004 61.72H286.04C286.196 61.72 286.274 61.834 286.274 62.062C286.274 62.194 286.25 62.32 286.202 62.44C286.166 62.548 286.118 62.602 286.058 62.602L284.042 62.548V68.02C284.042 68.416 284.12 68.746 284.276 69.01C284.444 69.274 284.714 69.406 285.086 69.406C285.458 69.406 285.788 69.34 286.076 69.208C286.232 69.148 286.328 69.118 286.364 69.118C286.448 69.118 286.514 69.154 286.562 69.226C286.61 69.286 286.658 69.37 286.706 69.478C286.718 69.502 286.724 69.532 286.724 69.568C286.724 69.616 286.688 69.67 286.616 69.73C286.268 69.958 285.938 70.108 285.626 70.18C285.326 70.264 284.966 70.306 284.546 70.306ZM291.402 70.216C290.442 70.216 289.662 70.048 289.062 69.712C288.462 69.376 288.162 68.902 288.162 68.29C288.162 67.942 288.264 67.66 288.468 67.444C288.684 67.228 288.96 67.12 289.296 67.12C289.488 67.12 289.656 67.174 289.8 67.282C289.956 67.39 290.034 67.474 290.034 67.534C290.034 67.546 289.962 67.624 289.818 67.768C289.686 67.912 289.62 68.116 289.62 68.38C289.62 68.74 289.782 69.028 290.106 69.244C290.442 69.448 290.922 69.55 291.546 69.55C292.11 69.55 292.548 69.43 292.86 69.19C293.184 68.938 293.346 68.59 293.346 68.146C293.346 67.846 293.256 67.6 293.076 67.408C292.896 67.216 292.668 67.066 292.392 66.958C292.128 66.85 291.756 66.724 291.276 66.58C290.688 66.412 290.208 66.244 289.836 66.076C289.464 65.908 289.146 65.656 288.882 65.32C288.618 64.984 288.486 64.546 288.486 64.006C288.486 63.502 288.642 63.07 288.954 62.71C289.266 62.35 289.668 62.08 290.16 61.9C290.664 61.72 291.192 61.63 291.744 61.63C292.452 61.63 293.064 61.78 293.58 62.08C294.108 62.38 294.372 62.8 294.372 63.34C294.372 63.664 294.27 63.94 294.066 64.168C293.874 64.396 293.616 64.51 293.292 64.51C293.1 64.51 292.926 64.456 292.77 64.348C292.626 64.24 292.554 64.156 292.554 64.096C292.554 64.084 292.602 64.036 292.698 63.952C292.794 63.868 292.878 63.772 292.95 63.664C293.034 63.544 293.076 63.406 293.076 63.25C293.052 62.926 292.89 62.674 292.59 62.494C292.29 62.314 291.936 62.224 291.528 62.224C291.072 62.224 290.67 62.332 290.322 62.548C289.986 62.752 289.818 63.04 289.818 63.412C289.818 63.748 289.89 64.018 290.034 64.222C290.178 64.414 290.394 64.57 290.682 64.69C290.97 64.81 291.426 64.972 292.05 65.176C292.686 65.38 293.184 65.572 293.544 65.752C293.904 65.92 294.186 66.154 294.39 66.454C294.606 66.742 294.714 67.126 294.714 67.606C294.714 68.098 294.57 68.548 294.282 68.956C293.994 69.352 293.598 69.664 293.094 69.892C292.59 70.108 292.026 70.216 291.402 70.216Z" fill="black"/>
<path d="M65.9792 0.0551605H63.8132V16.6068H85.0843V79.9998C92.8596 80.0439 96.414 72.0366 96.414 68.9654C96.4511 52.9286 96.5029 21.5061 96.414 16.6068C96.3252 11.7075 91.6933 8.82755 89.1386 8.82755H73.8656L65.9792 0.0551605Z" fill="#100030"/>
<path d="M37.5084 0L29.4979 8.88905H15.6214C10.7844 8.88905 6.86646 12.8666 6.86646 17.7781V71.1113C6.86646 76.0223 10.7844 79.9998 15.6214 79.9998H85.6596C90.4966 79.9998 94.4145 76.0223 94.4145 71.1113V17.7781C94.4145 12.8666 90.4966 8.88905 85.6596 8.88905H71.7831L63.7726 0H37.5084ZM50.6405 66.6668C38.5588 66.6668 28.7535 56.711 28.7535 44.4447C28.7535 32.1778 38.5588 22.2226 50.6405 22.2226C62.7222 22.2226 72.5275 32.1778 72.5275 44.4447C72.5275 56.711 62.7222 66.6668 50.6405 66.6668Z" fill="url(#paint1_linear)"/>
<path d="M6.8454 62.6064C2.94211 62.6064 0 64.4974 0 67.0045C0 69.5111 2.94211 71.4021 6.8454 71.4021V68.47C4.19509 68.47 2.73834 67.3691 2.73834 67.0045C2.73834 66.6394 4.19509 65.5385 6.8454 65.5385C9.49616 65.5385 10.9529 66.6394 10.9529 67.0045C10.9529 67.8151 11.5647 68.47 12.3221 68.47C13.0791 68.47 13.6913 67.8151 13.6913 67.0045C13.6913 64.4974 10.7487 62.6064 6.8454 62.6064Z" fill="#100030"/>
<path d="M6.8454 52.5492C2.94211 52.5492 0 54.4402 0 56.9473C0 59.4539 2.94211 61.3449 6.8454 61.3449V58.4128C4.19509 58.4128 2.73834 57.3119 2.73834 56.9473C2.73834 56.5822 4.19509 55.4813 6.8454 55.4813C9.49616 55.4813 10.9529 56.5822 10.9529 56.9473C10.9529 57.7579 11.5647 58.4128 12.3221 58.4128C13.0791 58.4128 13.6913 57.7579 13.6913 56.9473C13.6913 54.4402 10.7487 52.5492 6.8454 52.5492Z" fill="#100030"/>
<path d="M6.8454 42.6147C2.94211 42.6147 0 44.5057 0 47.0128C0 49.5194 2.94211 51.4104 6.8454 51.4104V48.4783C4.19509 48.4783 2.73834 47.3774 2.73834 47.0128C2.73834 46.6477 4.19509 45.5468 6.8454 45.5468C9.49616 45.5468 10.9529 46.6477 10.9529 47.0128C10.9529 47.8234 11.5647 48.4783 12.3221 48.4783C13.0791 48.4783 13.6913 47.8234 13.6913 47.0128C13.6913 44.5057 10.7487 42.6147 6.8454 42.6147Z" fill="#100030"/>
<path d="M6.8454 34.0293C2.94211 34.0293 0 35.9203 0 38.4274C0 40.934 2.94211 42.825 6.8454 42.825V39.8929C4.19509 39.8929 2.73834 38.792 2.73834 38.4274C2.73834 38.0623 4.19509 36.9613 6.8454 36.9613C9.49616 36.9613 10.9529 38.0623 10.9529 38.4274C10.9529 39.238 11.5647 39.8929 12.3221 39.8929C13.0791 39.8929 13.6913 39.238 13.6913 38.4274C13.6913 35.9203 10.7487 34.0293 6.8454 34.0293Z" fill="#100030"/>
<path d="M6.8454 25.4439C2.94211 25.4439 0 27.3349 0 29.842C0 32.3486 2.94211 34.2396 6.8454 34.2396V31.3075C4.19509 31.3075 2.73834 30.2066 2.73834 29.842C2.73834 29.4769 4.19509 28.3759 6.8454 28.3759C9.49616 28.3759 10.9529 29.4769 10.9529 29.842C10.9529 30.6526 11.5647 31.3075 12.3221 31.3075C13.0791 31.3075 13.6913 30.6526 13.6913 29.842C13.6913 27.3349 10.7487 25.4439 6.8454 25.4439Z" fill="#100030"/>
<path d="M6.8454 18.0849C2.94211 18.0849 0 19.9759 0 22.483C0 24.9897 2.94211 26.8807 6.8454 26.8807V23.9486C4.19509 23.9486 2.73834 22.8476 2.73834 22.483C2.73834 22.118 4.19509 21.017 6.8454 21.017C9.49616 21.017 10.9529 22.118 10.9529 22.483C10.9529 23.2937 11.5647 23.9486 12.3221 23.9486C13.0791 23.9486 13.6913 23.2937 13.6913 22.483C13.6913 19.9759 10.7487 18.0849 6.8454 18.0849Z" fill="#100030"/>
<ellipse cx="50.645" cy="44.4827" rx="15.862" ry="16.0919" fill="url(#paint2_linear)"/>
<defs>
<linearGradient id="paint0_linear" x1="203.537" y1="9" x2="203.537" y2="54" gradientUnits="userSpaceOnUse">
<stop stop-color="#5E17EB"/>
<stop offset="1" stop-color="#30008F"/>
</linearGradient>
<linearGradient id="paint1_linear" x1="50.6405" y1="0" x2="50.6405" y2="79.9998" gradientUnits="userSpaceOnUse">
<stop stop-color="#5E17EB"/>
<stop offset="1" stop-color="#30008F"/>
</linearGradient>
<linearGradient id="paint2_linear" x1="50.645" y1="28.3907" x2="50.645" y2="60.5746" gradientUnits="userSpaceOnUse">
<stop stop-color="#5E17EB"/>
<stop offset="1" stop-color="#30008F"/>
</linearGradient>
</defs>
</svg>
