<svg width="846" height="223" viewBox="0 0 846 223" fill="none" xmlns="http://www.w3.org/2000/svg">
<path d="M323.54 94.63C350.32 94.63 365.92 80.33 365.92 63.95C365.92 48.74 347.85 37.95 323.54 37.95C310.67 37.95 292.99 43.8 292.99 66.16V127H321.46V77.86C321.46 61.09 305.6 61.87 302.48 54.2C301.18 50.95 302.09 45.62 310.8 45.62C317.69 45.62 327.05 51.34 332.38 59.4C343.17 75.91 336.02 92.03 323.54 92.03V94.63ZM370.558 127H399.028V82.28C399.028 73.05 391.228 73.05 384.338 72.01C376.928 70.84 372.638 68.63 370.558 65.9V127ZM401.498 53.42C401.498 44.19 394.868 37.82 384.858 37.82C374.848 37.82 368.218 44.19 368.218 53.42C368.218 62.52 374.848 68.89 384.858 68.89C394.868 68.89 401.498 62.52 401.498 53.42ZM477.113 104.51C465.023 121.41 449.813 124.01 433.433 98.01C422.383 80.59 416.533 66.29 424.593 62.52C437.073 56.67 433.433 88.91 455.273 88.91C472.173 88.91 476.853 70.97 474.903 56.67H472.043C472.043 62.52 470.743 66.03 465.933 66.03C459.433 66.03 453.453 55.76 441.363 55.76C420.953 55.76 404.313 70.58 404.313 91.77C404.313 113.09 419.913 127.91 443.053 127.91C462.813 127.91 471.393 119.33 479.843 106.46L477.113 104.51ZM517.807 127.91C542.247 127.91 560.187 118.81 560.187 103.6C560.187 91.25 548.357 84.36 530.937 82.15C544.717 79.03 553.557 72.14 553.557 61.35C553.557 46.14 535.617 37.95 511.177 37.95C498.307 37.95 480.627 43.8 480.627 66.16V127H504.417C508.577 127.52 513.127 127.91 517.807 127.91ZM510.657 81.63V84.49C516.897 84.49 524.047 88.65 529.897 98.01C536.657 109.06 535.357 120.37 530.417 123.1C523.917 126.61 516.767 124.01 509.097 115.17V77.86C509.097 61.09 493.367 61.87 490.117 54.2C488.817 50.95 489.857 45.62 498.437 45.62C505.327 45.62 514.037 49.26 520.017 56.8C531.977 71.75 524.957 81.37 510.657 81.63ZM603.778 55.76C580.508 55.76 564.908 70.58 564.908 91.77C564.908 113.09 580.508 127.91 603.778 127.91C626.918 127.91 642.518 113.09 642.518 91.77C642.518 70.58 626.918 55.76 603.778 55.76ZM622.238 121.02C614.828 125.7 605.078 115.3 594.028 98.01C582.978 80.59 577.778 67.33 585.188 62.52C592.598 57.84 602.348 68.24 613.398 85.66C624.318 102.95 629.778 116.34 622.238 121.02ZM684.267 55.76C660.997 55.76 645.397 70.58 645.397 91.77C645.397 113.09 660.997 127.91 684.267 127.91C707.407 127.91 723.007 113.09 723.007 91.77C723.007 70.58 707.407 55.76 684.267 55.76ZM702.727 121.02C695.317 125.7 685.567 115.3 674.517 98.01C663.467 80.59 658.267 67.33 665.677 62.52C673.087 57.84 682.837 68.24 693.887 85.66C704.807 102.95 710.267 116.34 702.727 121.02ZM761.332 93.46C761.332 110.1 755.612 123.88 743.132 123.88C725.842 123.88 730.262 107.5 739.102 104.12C745.992 101.39 756.782 97.88 756.782 80.59V59.79C756.782 42.89 731.562 56.93 731.562 38.86H728.312V127H743.132C759.252 127 764.452 111.4 764.452 93.98C764.452 92.81 764.452 91.64 764.582 90.6C777.582 95.67 761.202 111.01 769.392 121.15C779.532 133.76 799.812 126.09 809.692 113.09L807.612 111.01C801.112 117.64 796.562 118.03 791.882 106.85C786.812 94.89 776.802 92.16 765.232 87.61C766.012 85.4 767.572 83.84 770.302 83.84C776.802 83.84 779.012 90.73 787.462 90.73C797.992 90.73 801.892 80.59 801.892 56.67H798.512C798.512 61.74 797.212 66.55 793.702 66.55C788.892 66.55 785.902 54.72 774.202 55.76C762.372 56.67 761.332 72.92 761.332 93.46Z" fill="url(#paint0_linear)"/>
<path d="M290.24 185.12C290 185.12 289.827 185.04 289.72 184.88C289.587 184.693 289.52 184.48 289.52 184.24C289.547 183.84 289.627 183.6 289.76 183.52C289.893 183.44 290.053 183.4 290.24 183.4C290.427 183.4 290.547 183.4 290.6 183.4C291.4 183.4 291.987 183.2 292.36 182.8C292.733 182.373 293.027 181.907 293.24 181.4C293.48 180.867 293.64 180.507 293.72 180.32L300.72 163.76C300.88 163.36 300.96 163.04 300.96 162.8C300.96 162.32 300.773 161.973 300.4 161.76C300.027 161.547 299.507 161.373 298.84 161.24C298.387 161.16 298.107 161.08 298 161C297.893 160.92 297.84 160.693 297.84 160.32C297.84 160 297.92 159.787 298.08 159.68C298.267 159.573 298.547 159.52 298.92 159.52C300.253 159.52 301.307 159.627 302.08 159.84C302.88 160.027 303.573 160.427 304.16 161.04C304.747 161.627 305.293 162.533 305.8 163.76L312.52 180.32C312.92 181.333 313.307 182.093 313.68 182.6C314.053 183.107 314.613 183.373 315.36 183.4H315.6C315.867 183.4 316.053 183.453 316.16 183.56C316.267 183.64 316.333 183.867 316.36 184.24C316.36 184.48 316.293 184.693 316.16 184.88C316.053 185.04 315.88 185.12 315.64 185.12C313.933 185.04 312.467 185 311.24 185C309.64 185 307.987 185.04 306.28 185.12C306.04 185.12 305.853 185.04 305.72 184.88C305.613 184.693 305.56 184.48 305.56 184.24C305.587 183.867 305.653 183.64 305.76 183.56C305.867 183.453 306.053 183.4 306.32 183.4C307.227 183.4 307.867 183.32 308.24 183.16C308.613 182.973 308.8 182.653 308.8 182.2C308.8 181.853 308.64 181.227 308.32 180.32L306.96 177H297.08C296.413 178.653 296.027 179.613 295.92 179.88C295.84 180.147 295.8 180.293 295.8 180.32C295.48 181.333 295.32 181.987 295.32 182.28C295.32 182.733 295.52 183.04 295.92 183.2C296.32 183.333 297.08 183.4 298.2 183.4H298.44C298.707 183.4 298.893 183.453 299 183.56C299.107 183.64 299.173 183.867 299.2 184.24C299.2 184.48 299.133 184.693 299 184.88C298.893 185.04 298.72 185.12 298.48 185.12C296.773 185.04 295.32 185 294.12 185C293.267 185 291.973 185.04 290.24 185.12ZM297.84 175.28H306.24L302.2 165H302.08L297.84 175.28ZM325.626 185.48C324.133 185.48 322.746 185.08 321.466 184.28C320.186 183.453 319.159 182.32 318.386 180.88C317.613 179.413 317.226 177.76 317.226 175.92C317.226 174.267 317.626 172.707 318.426 171.24C319.226 169.773 320.333 168.6 321.746 167.72C323.159 166.84 324.733 166.4 326.466 166.4C327.293 166.4 328.119 166.507 328.946 166.72C329.773 166.907 330.493 167.173 331.106 167.52H331.226V161.4C331.226 160.707 331.199 160.2 331.146 159.88C331.119 159.56 330.959 159.28 330.666 159.04C330.373 158.8 329.879 158.68 329.186 158.68C328.866 158.68 328.626 158.64 328.466 158.56C328.306 158.453 328.226 158.227 328.226 157.88C328.226 157.72 328.279 157.573 328.386 157.44C328.493 157.28 328.653 157.187 328.866 157.16C330.546 156.92 331.986 156.573 333.186 156.12C333.559 155.987 333.866 155.907 334.106 155.88H334.226C334.653 155.88 334.866 156.133 334.866 156.64V181.32C334.866 182.893 335.906 183.68 337.986 183.68C338.439 183.68 338.666 183.893 338.666 184.32C338.666 184.693 338.439 184.92 337.986 185L331.626 185.44C331.439 185.44 331.333 185.373 331.306 185.24C331.279 185.133 331.266 184.933 331.266 184.64V183.04H331.146C330.453 183.76 329.599 184.347 328.586 184.8C327.599 185.253 326.613 185.48 325.626 185.48ZM326.986 183.48C327.919 183.48 328.706 183.307 329.346 182.96C330.013 182.587 330.639 182.093 331.226 181.48V170.92C330.986 170.147 330.479 169.44 329.706 168.8C328.959 168.16 328.013 167.84 326.866 167.84C325.826 167.84 324.879 168.173 324.026 168.84C323.199 169.48 322.546 170.427 322.066 171.68C321.586 172.933 321.346 174.413 321.346 176.12C321.346 178.173 321.826 179.92 322.786 181.36C323.773 182.773 325.173 183.48 326.986 183.48ZM348.829 185.48C347.336 185.48 345.949 185.08 344.669 184.28C343.389 183.453 342.362 182.32 341.589 180.88C340.816 179.413 340.429 177.76 340.429 175.92C340.429 174.267 340.829 172.707 341.629 171.24C342.429 169.773 343.536 168.6 344.949 167.72C346.362 166.84 347.936 166.4 349.669 166.4C350.496 166.4 351.322 166.507 352.149 166.72C352.976 166.907 353.696 167.173 354.309 167.52H354.429V161.4C354.429 160.707 354.402 160.2 354.349 159.88C354.322 159.56 354.162 159.28 353.869 159.04C353.576 158.8 353.082 158.68 352.389 158.68C352.069 158.68 351.829 158.64 351.669 158.56C351.509 158.453 351.429 158.227 351.429 157.88C351.429 157.72 351.482 157.573 351.589 157.44C351.696 157.28 351.856 157.187 352.069 157.16C353.749 156.92 355.189 156.573 356.389 156.12C356.762 155.987 357.069 155.907 357.309 155.88H357.429C357.856 155.88 358.069 156.133 358.069 156.64V181.32C358.069 182.893 359.109 183.68 361.189 183.68C361.642 183.68 361.869 183.893 361.869 184.32C361.869 184.693 361.642 184.92 361.189 185L354.829 185.44C354.642 185.44 354.536 185.373 354.509 185.24C354.482 185.133 354.469 184.933 354.469 184.64V183.04H354.349C353.656 183.76 352.802 184.347 351.789 184.8C350.802 185.253 349.816 185.48 348.829 185.48ZM350.189 183.48C351.122 183.48 351.909 183.307 352.549 182.96C353.216 182.587 353.842 182.093 354.429 181.48V170.92C354.189 170.147 353.682 169.44 352.909 168.8C352.162 168.16 351.216 167.84 350.069 167.84C349.029 167.84 348.082 168.173 347.229 168.84C346.402 169.48 345.749 170.427 345.269 171.68C344.789 172.933 344.549 174.413 344.549 176.12C344.549 178.173 345.029 179.92 345.989 181.36C346.976 182.773 348.376 183.48 350.189 183.48ZM363.952 185.12C363.766 185.12 363.606 185.04 363.472 184.88C363.366 184.72 363.312 184.533 363.312 184.32C363.339 183.973 363.419 183.773 363.552 183.72C363.686 183.64 363.926 183.6 364.272 183.6C364.966 183.6 365.459 183.48 365.752 183.24C366.046 183 366.206 182.72 366.232 182.4C366.286 182.08 366.312 181.573 366.312 180.88V171.72C366.312 171.027 366.286 170.52 366.232 170.2C366.206 169.88 366.046 169.6 365.752 169.36C365.459 169.12 364.966 169 364.272 169C363.952 169 363.712 168.96 363.552 168.88C363.392 168.773 363.312 168.547 363.312 168.2C363.312 168.04 363.366 167.893 363.472 167.76C363.579 167.6 363.739 167.507 363.952 167.48C365.632 167.24 367.072 166.893 368.272 166.44C368.646 166.307 368.952 166.227 369.192 166.2H369.312C369.739 166.2 369.952 166.453 369.952 166.96V180.88C369.952 181.573 369.979 182.08 370.032 182.4C370.086 182.72 370.259 183 370.552 183.24C370.846 183.48 371.339 183.6 372.032 183.6H372.272C372.486 183.6 372.646 183.64 372.752 183.72C372.859 183.8 372.926 184 372.952 184.32C372.952 184.533 372.899 184.72 372.792 184.88C372.686 185.04 372.526 185.12 372.312 185.12C370.766 185.04 369.366 185 368.112 185C366.912 185 365.526 185.04 363.952 185.12ZM367.912 161.76C367.166 161.76 366.539 161.533 366.032 161.08C365.526 160.6 365.272 160.013 365.272 159.32C365.272 158.707 365.579 158.16 366.192 157.68C366.806 157.2 367.499 156.96 368.272 156.96C368.939 156.96 369.486 157.2 369.912 157.68C370.339 158.133 370.552 158.72 370.552 159.44C370.552 160.08 370.299 160.627 369.792 161.08C369.286 161.533 368.659 161.76 367.912 161.76ZM375.593 185.12C375.406 185.12 375.246 185.04 375.113 184.88C375.006 184.72 374.953 184.533 374.953 184.32C374.979 183.973 375.059 183.773 375.193 183.72C375.326 183.64 375.566 183.6 375.913 183.6C376.606 183.6 377.099 183.48 377.393 183.24C377.686 183 377.846 182.72 377.873 182.4C377.926 182.08 377.953 181.573 377.953 180.88V171.72C377.953 171.027 377.926 170.52 377.873 170.2C377.846 169.88 377.686 169.6 377.393 169.36C377.099 169.12 376.606 169 375.913 169C375.593 169 375.353 168.96 375.193 168.88C375.033 168.773 374.953 168.547 374.953 168.2C374.953 168.04 375.006 167.893 375.113 167.76C375.219 167.6 375.379 167.507 375.593 167.48C377.326 167.213 378.753 166.867 379.873 166.44C380.326 166.307 380.633 166.227 380.793 166.2H380.913C381.339 166.2 381.553 166.453 381.553 166.96V169.48H381.673C382.446 168.76 383.073 168.213 383.553 167.84C384.033 167.44 384.646 167.107 385.393 166.84C386.166 166.547 387.073 166.4 388.113 166.4C389.926 166.4 391.366 166.947 392.433 168.04C393.499 169.133 394.033 170.573 394.033 172.36V180.88C394.033 181.573 394.059 182.08 394.113 182.4C394.166 182.72 394.339 183 394.633 183.24C394.926 183.48 395.419 183.6 396.113 183.6H396.353C396.566 183.6 396.726 183.64 396.833 183.72C396.939 183.8 397.006 184 397.033 184.32C397.033 184.533 396.966 184.72 396.833 184.88C396.726 185.04 396.579 185.12 396.393 185.12C394.846 185.04 393.446 185 392.193 185C390.993 185 389.606 185.04 388.033 185.12C387.846 185.12 387.686 185.04 387.553 184.88C387.446 184.72 387.393 184.533 387.393 184.32C387.419 183.973 387.486 183.773 387.593 183.72C387.726 183.64 387.966 183.6 388.313 183.6C389.006 183.6 389.499 183.48 389.793 183.24C390.086 183 390.259 182.72 390.313 182.4C390.366 182.08 390.393 181.573 390.393 180.88V172.4C390.393 171.173 390.006 170.24 389.233 169.6C388.459 168.933 387.566 168.6 386.553 168.6C385.326 168.6 384.273 168.907 383.393 169.52C382.513 170.107 381.913 170.72 381.593 171.36V180.88C381.593 181.573 381.619 182.08 381.673 182.4C381.726 182.72 381.899 183 382.193 183.24C382.486 183.48 382.979 183.6 383.673 183.6H383.913C384.126 183.6 384.286 183.64 384.393 183.72C384.499 183.8 384.566 184 384.593 184.32C384.593 184.533 384.539 184.72 384.433 184.88C384.326 185.04 384.166 185.12 383.953 185.12C382.406 185.04 381.006 185 379.753 185C378.553 185 377.166 185.04 375.593 185.12ZM407.098 193.72C401.471 193.72 398.658 192.12 398.658 188.92C398.658 188.013 398.938 187.227 399.498 186.56C400.085 185.893 400.831 185.56 401.738 185.56C402.111 185.56 402.458 185.627 402.778 185.76C403.098 185.92 403.351 186.093 403.538 186.28C403.751 186.493 403.858 186.653 403.858 186.76C403.858 186.787 403.738 186.907 403.498 187.12C403.285 187.36 403.085 187.64 402.898 187.96C402.738 188.307 402.658 188.707 402.658 189.16C402.658 191.213 404.418 192.24 407.938 192.24C409.965 192.24 411.525 191.88 412.618 191.16C413.711 190.467 414.258 189.427 414.258 188.04C414.258 187.187 413.938 186.547 413.298 186.12C412.658 185.693 411.858 185.413 410.898 185.28C409.938 185.173 408.685 185.107 407.138 185.08C405.245 185.027 403.898 184.933 403.098 184.8C402.058 184.613 401.245 184.28 400.658 183.8C400.098 183.32 399.818 182.573 399.818 181.56C399.818 180.52 400.178 179.653 400.898 178.96C401.645 178.24 402.698 177.88 404.058 177.88C402.485 177.267 401.378 176.507 400.738 175.6C400.098 174.667 399.778 173.627 399.778 172.48C399.778 171.333 400.098 170.293 400.738 169.36C401.405 168.427 402.325 167.693 403.498 167.16C404.671 166.627 406.005 166.36 407.498 166.36C409.418 166.36 410.898 166.627 411.938 167.16L417.418 166.12H417.498C417.951 166.12 418.178 166.44 418.178 167.08C418.178 167.453 418.111 167.8 417.978 168.12C417.871 168.44 417.738 168.6 417.578 168.6L413.618 168.44V168.52C414.071 168.973 414.458 169.573 414.778 170.32C415.098 171.067 415.258 171.773 415.258 172.44C415.258 173.667 414.898 174.76 414.178 175.72C413.485 176.653 412.565 177.373 411.418 177.88C410.271 178.387 409.071 178.64 407.818 178.64H406.058C404.671 178.64 403.658 178.773 403.018 179.04C402.405 179.307 402.098 179.747 402.098 180.36C402.098 180.867 402.271 181.24 402.618 181.48C402.965 181.72 403.565 181.867 404.418 181.92L409.898 182.12C412.698 182.227 414.711 182.68 415.938 183.48C417.191 184.253 417.818 185.44 417.818 187.04C417.818 189.12 416.845 190.747 414.898 191.92C412.951 193.12 410.351 193.72 407.098 193.72ZM407.498 177.48C408.751 177.48 409.751 177.04 410.498 176.16C411.271 175.253 411.658 174.013 411.658 172.44C411.658 170.973 411.258 169.8 410.458 168.92C409.685 168.04 408.685 167.6 407.458 167.6C406.258 167.6 405.271 168.027 404.498 168.88C403.725 169.733 403.338 170.893 403.338 172.36C403.338 173.96 403.725 175.213 404.498 176.12C405.271 177.027 406.271 177.48 407.498 177.48ZM428.982 185.12C428.795 185.12 428.635 185.04 428.502 184.88C428.395 184.72 428.342 184.533 428.342 184.32C428.369 183.973 428.435 183.773 428.542 183.72C428.675 183.64 428.915 183.6 429.262 183.6C429.955 183.6 430.449 183.48 430.742 183.24C431.035 183 431.209 182.72 431.262 182.4C431.315 182.08 431.342 181.573 431.342 180.88V161.36C431.342 160.667 431.315 160.16 431.262 159.84C431.235 159.52 431.075 159.24 430.782 159C430.489 158.76 429.995 158.64 429.302 158.64C428.982 158.64 428.742 158.6 428.582 158.52C428.422 158.413 428.342 158.187 428.342 157.84C428.342 157.68 428.395 157.533 428.502 157.4C428.609 157.24 428.769 157.147 428.982 157.12C430.662 156.88 432.102 156.533 433.302 156.08C433.675 155.947 433.982 155.867 434.222 155.84H434.342C434.769 155.84 434.982 156.093 434.982 156.6V180.88C434.982 181.573 435.009 182.08 435.062 182.4C435.115 182.72 435.289 183 435.582 183.24C435.875 183.48 436.369 183.6 437.062 183.6H437.302C437.515 183.6 437.675 183.64 437.782 183.72C437.889 183.8 437.955 184 437.982 184.32C437.982 184.533 437.929 184.72 437.822 184.88C437.715 185.04 437.555 185.12 437.342 185.12C435.795 185.04 434.395 185 433.142 185C431.942 185 430.555 185.04 428.982 185.12ZM440.827 185.12C440.641 185.12 440.481 185.04 440.347 184.88C440.241 184.72 440.187 184.533 440.187 184.32C440.214 183.973 440.294 183.773 440.427 183.72C440.561 183.64 440.801 183.6 441.147 183.6C441.841 183.6 442.334 183.48 442.627 183.24C442.921 183 443.081 182.72 443.107 182.4C443.161 182.08 443.187 181.573 443.187 180.88V171.72C443.187 171.027 443.161 170.52 443.107 170.2C443.081 169.88 442.921 169.6 442.627 169.36C442.334 169.12 441.841 169 441.147 169C440.827 169 440.587 168.96 440.427 168.88C440.267 168.773 440.187 168.547 440.187 168.2C440.187 168.04 440.241 167.893 440.347 167.76C440.454 167.6 440.614 167.507 440.827 167.48C442.507 167.24 443.947 166.893 445.147 166.44C445.521 166.307 445.827 166.227 446.067 166.2H446.187C446.614 166.2 446.827 166.453 446.827 166.96V180.88C446.827 181.573 446.854 182.08 446.907 182.4C446.961 182.72 447.134 183 447.427 183.24C447.721 183.48 448.214 183.6 448.907 183.6H449.147C449.361 183.6 449.521 183.64 449.627 183.72C449.734 183.8 449.801 184 449.827 184.32C449.827 184.533 449.774 184.72 449.667 184.88C449.561 185.04 449.401 185.12 449.187 185.12C447.641 185.04 446.241 185 444.987 185C443.787 185 442.401 185.04 440.827 185.12ZM444.787 161.76C444.041 161.76 443.414 161.533 442.907 161.08C442.401 160.6 442.147 160.013 442.147 159.32C442.147 158.707 442.454 158.16 443.067 157.68C443.681 157.2 444.374 156.96 445.147 156.96C445.814 156.96 446.361 157.2 446.787 157.68C447.214 158.133 447.427 158.72 447.427 159.44C447.427 160.08 447.174 160.627 446.667 161.08C446.161 161.533 445.534 161.76 444.787 161.76ZM453.023 185.12C452.81 185.12 452.65 185.04 452.543 184.88C452.436 184.72 452.383 184.533 452.383 184.32C452.41 183.973 452.476 183.773 452.583 183.72C452.716 183.64 452.956 183.6 453.303 183.6C453.996 183.6 454.49 183.48 454.783 183.24C455.076 183 455.236 182.733 455.263 182.44C455.316 182.12 455.343 181.6 455.343 180.88V168.44H452.663C452.45 168.44 452.276 168.36 452.143 168.2C452.036 168.04 451.983 167.853 451.983 167.64C452.01 167.267 452.09 167.053 452.223 167C452.356 166.92 452.596 166.88 452.943 166.88H455.343V165.2C455.343 162.453 455.983 160.227 457.263 158.52C458.57 156.787 460.396 155.893 462.743 155.84C464.05 155.84 465.223 156.213 466.263 156.96C467.303 157.68 467.823 158.613 467.823 159.76C467.823 160.56 467.583 161.267 467.103 161.88C466.65 162.467 466.01 162.76 465.183 162.76C464.703 162.76 464.29 162.627 463.943 162.36C463.596 162.093 463.423 161.88 463.423 161.72C463.423 161.693 463.543 161.56 463.783 161.32C464.05 161.08 464.276 160.8 464.463 160.48C464.676 160.133 464.783 159.733 464.783 159.28C464.783 158.693 464.556 158.2 464.103 157.8C463.676 157.373 463.13 157.16 462.463 157.16C461.396 157.16 460.61 157.573 460.103 158.4C459.596 159.227 459.29 160.133 459.183 161.12C459.076 162.08 459.023 163.2 459.023 164.48V166.88H462.943H463.183C463.423 166.88 463.596 166.933 463.703 167.04C463.836 167.12 463.916 167.32 463.943 167.64C463.943 167.853 463.876 168.04 463.743 168.2C463.61 168.36 463.45 168.44 463.263 168.44H459.023V180.88C459.023 181.707 459.09 182.307 459.223 182.68C459.356 183.027 459.61 183.267 459.983 183.4C460.356 183.533 460.983 183.6 461.863 183.6H462.103C462.343 183.6 462.503 183.64 462.583 183.72C462.69 183.8 462.756 184 462.783 184.32C462.783 184.533 462.73 184.72 462.623 184.88C462.516 185.04 462.37 185.12 462.183 185.12C460.636 185.04 458.97 185 457.183 185C455.93 185 454.543 185.04 453.023 185.12ZM474.945 185.48C472.945 185.48 471.239 185.053 469.825 184.2C468.439 183.347 467.385 182.187 466.665 180.72C465.945 179.253 465.585 177.627 465.585 175.84C465.585 174.267 465.945 172.76 466.665 171.32C467.412 169.853 468.465 168.667 469.825 167.76C471.185 166.853 472.745 166.4 474.505 166.4C476.879 166.4 478.705 167.013 479.985 168.24C481.265 169.44 481.999 171.067 482.185 173.12C482.185 174 481.945 174.6 481.465 174.92C480.985 175.24 480.292 175.4 479.385 175.4H469.665C469.665 177.88 470.172 179.853 471.185 181.32C472.225 182.76 473.825 183.48 475.985 183.48C477.132 183.48 478.105 183.24 478.905 182.76C479.705 182.253 480.465 181.413 481.185 180.24C481.319 180.107 481.452 180.04 481.585 180.04C481.772 180.04 481.932 180.093 482.065 180.2C482.332 180.36 482.465 180.6 482.465 180.92C482.465 181.08 482.439 181.2 482.385 181.28C481.559 182.613 480.505 183.653 479.225 184.4C477.972 185.12 476.545 185.48 474.945 185.48ZM476.185 173.88C477.545 173.88 478.265 173.32 478.345 172.2C478.345 170.973 478.012 169.933 477.345 169.08C476.679 168.227 475.732 167.8 474.505 167.8C473.145 167.8 472.025 168.347 471.145 169.44C470.265 170.507 469.772 171.987 469.665 173.88H476.185ZM501.57 185.68C500.263 185.68 499.143 185.2 498.21 184.24C497.276 183.28 496.81 181.907 496.81 180.12V168.36L494.49 168.44C494.33 168.44 494.196 168.373 494.09 168.24C493.983 168.08 493.93 167.907 493.93 167.72C493.93 167.48 493.97 167.28 494.05 167.12C494.156 166.933 494.303 166.827 494.49 166.8C495.423 166.613 496.143 166.32 496.65 165.92C497.183 165.493 497.57 165.04 497.81 164.56C498.05 164.053 498.343 163.293 498.69 162.28C498.823 161.933 499.116 161.76 499.57 161.76C499.756 161.76 499.943 161.813 500.13 161.92C500.316 162 500.41 162.133 500.41 162.32L500.13 166.88L504.81 166.6H504.89C505.236 166.6 505.41 166.853 505.41 167.36C505.41 167.653 505.356 167.933 505.25 168.2C505.17 168.44 505.063 168.56 504.93 168.56L500.45 168.44V180.6C500.45 181.48 500.623 182.213 500.97 182.8C501.343 183.387 501.943 183.68 502.77 183.68C503.596 183.68 504.33 183.533 504.97 183.24C505.316 183.107 505.53 183.04 505.61 183.04C505.796 183.04 505.943 183.12 506.05 183.28C506.156 183.413 506.263 183.6 506.37 183.84C506.396 183.893 506.41 183.96 506.41 184.04C506.41 184.147 506.33 184.267 506.17 184.4C505.396 184.907 504.663 185.24 503.97 185.4C503.303 185.587 502.503 185.68 501.57 185.68ZM519.046 185.48C517.233 185.48 515.619 185.053 514.206 184.2C512.793 183.32 511.686 182.173 510.886 180.76C510.113 179.32 509.726 177.8 509.726 176.2C509.726 174.2 510.193 172.467 511.126 171C512.059 169.507 513.246 168.373 514.686 167.6C516.126 166.8 517.579 166.4 519.046 166.4C520.859 166.4 522.473 166.84 523.886 167.72C525.299 168.573 526.393 169.72 527.166 171.16C527.966 172.573 528.366 174.08 528.366 175.68C528.366 177.68 527.886 179.427 526.926 180.92C525.993 182.387 524.806 183.52 523.366 184.32C521.926 185.093 520.486 185.48 519.046 185.48ZM519.046 184C520.859 184 522.179 183.227 523.006 181.68C523.859 180.133 524.286 178.133 524.286 175.68C524.286 173.387 523.846 171.52 522.966 170.08C522.113 168.613 520.806 167.88 519.046 167.88C517.206 167.88 515.873 168.64 515.046 170.16C514.219 171.68 513.806 173.667 513.806 176.12C513.806 178.413 514.233 180.307 515.086 181.8C515.939 183.267 517.259 184 519.046 184ZM540.906 185.12C540.72 185.12 540.56 185.04 540.426 184.88C540.32 184.72 540.266 184.533 540.266 184.32C540.293 183.973 540.36 183.773 540.466 183.72C540.6 183.64 540.84 183.6 541.186 183.6C541.88 183.6 542.373 183.48 542.666 183.24C542.96 183 543.133 182.72 543.186 182.4C543.24 182.08 543.266 181.573 543.266 180.88V171.72C543.266 171.027 543.24 170.52 543.186 170.2C543.16 169.88 543 169.6 542.706 169.36C542.413 169.12 541.92 169 541.226 169C540.906 169 540.666 168.96 540.506 168.88C540.346 168.773 540.266 168.547 540.266 168.2C540.266 168.04 540.32 167.893 540.426 167.76C540.533 167.6 540.693 167.507 540.906 167.48C542.64 167.213 544.066 166.867 545.186 166.44C545.64 166.307 545.946 166.227 546.106 166.2H546.226C546.653 166.2 546.866 166.453 546.866 166.96V169.48H546.986C547.146 169.32 547.546 168.933 548.186 168.32C548.826 167.68 549.546 167.2 550.346 166.88C551.173 166.56 552.106 166.4 553.146 166.4C554.426 166.4 555.533 166.68 556.466 167.24C557.4 167.773 558.093 168.52 558.546 169.48H558.626C559.666 168.493 560.653 167.733 561.586 167.2C562.546 166.667 563.773 166.4 565.266 166.4C567.08 166.4 568.52 166.947 569.586 168.04C570.653 169.133 571.186 170.573 571.186 172.36V180.88C571.186 181.573 571.213 182.08 571.266 182.4C571.32 182.72 571.493 183 571.786 183.24C572.08 183.48 572.573 183.6 573.266 183.6H573.506C573.72 183.6 573.88 183.64 573.986 183.72C574.093 183.8 574.16 184 574.186 184.32C574.186 184.533 574.12 184.72 573.986 184.88C573.88 185.04 573.733 185.12 573.546 185.12C572 185.04 570.6 185 569.346 185C568.146 185 566.76 185.04 565.186 185.12C564.973 185.12 564.813 185.04 564.706 184.88C564.6 184.72 564.546 184.533 564.546 184.32C564.573 183.973 564.64 183.773 564.746 183.72C564.88 183.64 565.12 183.6 565.466 183.6C566.16 183.6 566.653 183.48 566.946 183.24C567.24 183 567.413 182.72 567.466 182.4C567.52 182.08 567.546 181.573 567.546 180.88V172.4C567.546 171.173 567.16 170.24 566.386 169.6C565.613 168.933 564.72 168.6 563.706 168.6C562.48 168.6 561.48 168.893 560.706 169.48C559.933 170.067 559.386 170.693 559.066 171.36V180.88C559.066 181.04 559.053 181.4 559.026 181.96C559.026 182.52 559.173 182.933 559.466 183.2C559.786 183.467 560.293 183.6 560.986 183.6H561.226C561.466 183.6 561.626 183.64 561.706 183.72C561.813 183.8 561.88 184 561.906 184.32C561.906 184.533 561.853 184.72 561.746 184.88C561.64 185.04 561.48 185.12 561.266 185.12C559.693 185.04 558.333 185 557.186 185C556.093 185 554.76 185.04 553.186 185.12C552.973 185.12 552.813 185.04 552.706 184.88C552.6 184.72 552.546 184.533 552.546 184.32C552.573 183.973 552.64 183.773 552.746 183.72C552.88 183.64 553.12 183.6 553.466 183.6C554.346 183.6 554.893 183.427 555.106 183.08C555.32 182.707 555.413 182.293 555.386 181.84C555.386 181.36 555.386 181.04 555.386 180.88V172.4C555.386 171.173 555 170.24 554.226 169.6C553.48 168.933 552.6 168.6 551.586 168.6C550.36 168.6 549.36 168.893 548.586 169.48C547.813 170.067 547.253 170.693 546.906 171.36V180.88C546.906 181.573 546.933 182.08 546.986 182.4C547.04 182.72 547.213 183 547.506 183.24C547.8 183.48 548.293 183.6 548.986 183.6H549.226C549.44 183.6 549.6 183.64 549.706 183.72C549.813 183.8 549.88 184 549.906 184.32C549.906 184.533 549.853 184.72 549.746 184.88C549.64 185.04 549.48 185.12 549.266 185.12C547.72 185.04 546.32 185 545.066 185C543.866 185 542.48 185.04 540.906 185.12ZM585.569 185.48C583.756 185.48 582.143 185.053 580.729 184.2C579.316 183.32 578.209 182.173 577.409 180.76C576.636 179.32 576.249 177.8 576.249 176.2C576.249 174.2 576.716 172.467 577.649 171C578.583 169.507 579.769 168.373 581.209 167.6C582.649 166.8 584.103 166.4 585.569 166.4C587.383 166.4 588.996 166.84 590.409 167.72C591.823 168.573 592.916 169.72 593.689 171.16C594.489 172.573 594.889 174.08 594.889 175.68C594.889 177.68 594.409 179.427 593.449 180.92C592.516 182.387 591.329 183.52 589.889 184.32C588.449 185.093 587.009 185.48 585.569 185.48ZM585.569 184C587.383 184 588.703 183.227 589.529 181.68C590.383 180.133 590.809 178.133 590.809 175.68C590.809 173.387 590.369 171.52 589.489 170.08C588.636 168.613 587.329 167.88 585.569 167.88C583.729 167.88 582.396 168.64 581.569 170.16C580.743 171.68 580.329 173.667 580.329 176.12C580.329 178.413 580.756 180.307 581.609 181.8C582.463 183.267 583.783 184 585.569 184ZM598.289 185.12C598.102 185.12 597.942 185.04 597.809 184.88C597.702 184.72 597.649 184.533 597.649 184.32C597.676 183.973 597.742 183.773 597.849 183.72C597.982 183.64 598.222 183.6 598.569 183.6C599.262 183.6 599.756 183.48 600.049 183.24C600.342 183 600.516 182.72 600.569 182.4C600.622 182.08 600.649 181.573 600.649 180.88V171.72C600.649 171.027 600.622 170.52 600.569 170.2C600.542 169.88 600.382 169.6 600.089 169.36C599.796 169.12 599.302 169 598.609 169C598.289 169 598.049 168.96 597.889 168.88C597.729 168.773 597.649 168.547 597.649 168.2C597.649 168.04 597.702 167.893 597.809 167.76C597.916 167.6 598.076 167.507 598.289 167.48C600.022 167.213 601.449 166.867 602.569 166.44C603.022 166.307 603.329 166.227 603.489 166.2H603.609C604.036 166.2 604.249 166.453 604.249 166.96V169.48H604.369C604.529 169.32 604.929 168.933 605.569 168.32C606.209 167.68 606.929 167.2 607.729 166.88C608.556 166.56 609.489 166.4 610.529 166.4C611.809 166.4 612.916 166.68 613.849 167.24C614.782 167.773 615.476 168.52 615.929 169.48H616.009C617.049 168.493 618.036 167.733 618.969 167.2C619.929 166.667 621.156 166.4 622.649 166.4C624.462 166.4 625.902 166.947 626.969 168.04C628.036 169.133 628.569 170.573 628.569 172.36V180.88C628.569 181.573 628.596 182.08 628.649 182.4C628.702 182.72 628.876 183 629.169 183.24C629.462 183.48 629.956 183.6 630.649 183.6H630.889C631.102 183.6 631.262 183.64 631.369 183.72C631.476 183.8 631.542 184 631.569 184.32C631.569 184.533 631.502 184.72 631.369 184.88C631.262 185.04 631.116 185.12 630.929 185.12C629.382 185.04 627.982 185 626.729 185C625.529 185 624.142 185.04 622.569 185.12C622.356 185.12 622.196 185.04 622.089 184.88C621.982 184.72 621.929 184.533 621.929 184.32C621.956 183.973 622.022 183.773 622.129 183.72C622.262 183.64 622.502 183.6 622.849 183.6C623.542 183.6 624.036 183.48 624.329 183.24C624.622 183 624.796 182.72 624.849 182.4C624.902 182.08 624.929 181.573 624.929 180.88V172.4C624.929 171.173 624.542 170.24 623.769 169.6C622.996 168.933 622.102 168.6 621.089 168.6C619.862 168.6 618.862 168.893 618.089 169.48C617.316 170.067 616.769 170.693 616.449 171.36V180.88C616.449 181.04 616.436 181.4 616.409 181.96C616.409 182.52 616.556 182.933 616.849 183.2C617.169 183.467 617.676 183.6 618.369 183.6H618.609C618.849 183.6 619.009 183.64 619.089 183.72C619.196 183.8 619.262 184 619.289 184.32C619.289 184.533 619.236 184.72 619.129 184.88C619.022 185.04 618.862 185.12 618.649 185.12C617.076 185.04 615.716 185 614.569 185C613.476 185 612.142 185.04 610.569 185.12C610.356 185.12 610.196 185.04 610.089 184.88C609.982 184.72 609.929 184.533 609.929 184.32C609.956 183.973 610.022 183.773 610.129 183.72C610.262 183.64 610.502 183.6 610.849 183.6C611.729 183.6 612.276 183.427 612.489 183.08C612.702 182.707 612.796 182.293 612.769 181.84C612.769 181.36 612.769 181.04 612.769 180.88V172.4C612.769 171.173 612.382 170.24 611.609 169.6C610.862 168.933 609.982 168.6 608.969 168.6C607.742 168.6 606.742 168.893 605.969 169.48C605.196 170.067 604.636 170.693 604.289 171.36V180.88C604.289 181.573 604.316 182.08 604.369 182.4C604.422 182.72 604.596 183 604.889 183.24C605.182 183.48 605.676 183.6 606.369 183.6H606.609C606.822 183.6 606.982 183.64 607.089 183.72C607.196 183.8 607.262 184 607.289 184.32C607.289 184.533 607.236 184.72 607.129 184.88C607.022 185.04 606.862 185.12 606.649 185.12C605.102 185.04 603.702 185 602.449 185C601.249 185 599.862 185.04 598.289 185.12ZM642.992 185.48C640.992 185.48 639.286 185.053 637.872 184.2C636.486 183.347 635.432 182.187 634.712 180.72C633.992 179.253 633.632 177.627 633.632 175.84C633.632 174.267 633.992 172.76 634.712 171.32C635.459 169.853 636.512 168.667 637.872 167.76C639.232 166.853 640.792 166.4 642.552 166.4C644.926 166.4 646.752 167.013 648.032 168.24C649.312 169.44 650.046 171.067 650.232 173.12C650.232 174 649.992 174.6 649.512 174.92C649.032 175.24 648.339 175.4 647.432 175.4H637.712C637.712 177.88 638.219 179.853 639.232 181.32C640.272 182.76 641.872 183.48 644.032 183.48C645.179 183.48 646.152 183.24 646.952 182.76C647.752 182.253 648.512 181.413 649.232 180.24C649.366 180.107 649.499 180.04 649.632 180.04C649.819 180.04 649.979 180.093 650.112 180.2C650.379 180.36 650.512 180.6 650.512 180.92C650.512 181.08 650.486 181.2 650.432 181.28C649.606 182.613 648.552 183.653 647.272 184.4C646.019 185.12 644.592 185.48 642.992 185.48ZM644.232 173.88C645.592 173.88 646.312 173.32 646.392 172.2C646.392 170.973 646.059 169.933 645.392 169.08C644.726 168.227 643.779 167.8 642.552 167.8C641.192 167.8 640.072 168.347 639.192 169.44C638.312 170.507 637.819 171.987 637.712 173.88H644.232ZM654.03 185.12C653.844 185.12 653.684 185.04 653.55 184.88C653.444 184.72 653.39 184.533 653.39 184.32C653.417 183.973 653.497 183.773 653.63 183.72C653.764 183.64 654.004 183.6 654.35 183.6C655.044 183.6 655.537 183.48 655.83 183.24C656.124 183 656.284 182.72 656.31 182.4C656.364 182.08 656.39 181.573 656.39 180.88V171.72C656.39 171.027 656.364 170.52 656.31 170.2C656.284 169.88 656.124 169.6 655.83 169.36C655.537 169.12 655.044 169 654.35 169C654.03 169 653.79 168.96 653.63 168.88C653.47 168.773 653.39 168.547 653.39 168.2C653.39 168.04 653.444 167.893 653.55 167.76C653.657 167.6 653.817 167.507 654.03 167.48C655.764 167.213 657.19 166.867 658.31 166.44C658.764 166.307 659.07 166.227 659.23 166.2H659.35C659.777 166.2 659.99 166.453 659.99 166.96V169.48H660.11C660.884 168.76 661.51 168.213 661.99 167.84C662.47 167.44 663.084 167.107 663.83 166.84C664.604 166.547 665.51 166.4 666.55 166.4C668.364 166.4 669.804 166.947 670.87 168.04C671.937 169.133 672.47 170.573 672.47 172.36V180.88C672.47 181.573 672.497 182.08 672.55 182.4C672.604 182.72 672.777 183 673.07 183.24C673.364 183.48 673.857 183.6 674.55 183.6H674.79C675.004 183.6 675.164 183.64 675.27 183.72C675.377 183.8 675.444 184 675.47 184.32C675.47 184.533 675.404 184.72 675.27 184.88C675.164 185.04 675.017 185.12 674.83 185.12C673.284 185.04 671.884 185 670.63 185C669.43 185 668.044 185.04 666.47 185.12C666.284 185.12 666.124 185.04 665.99 184.88C665.884 184.72 665.83 184.533 665.83 184.32C665.857 183.973 665.924 183.773 666.03 183.72C666.164 183.64 666.404 183.6 666.75 183.6C667.444 183.6 667.937 183.48 668.23 183.24C668.524 183 668.697 182.72 668.75 182.4C668.804 182.08 668.83 181.573 668.83 180.88V172.4C668.83 171.173 668.444 170.24 667.67 169.6C666.897 168.933 666.004 168.6 664.99 168.6C663.764 168.6 662.71 168.907 661.83 169.52C660.95 170.107 660.35 170.72 660.03 171.36V180.88C660.03 181.573 660.057 182.08 660.11 182.4C660.164 182.72 660.337 183 660.63 183.24C660.924 183.48 661.417 183.6 662.11 183.6H662.35C662.564 183.6 662.724 183.64 662.83 183.72C662.937 183.8 663.004 184 663.03 184.32C663.03 184.533 662.977 184.72 662.87 184.88C662.764 185.04 662.604 185.12 662.39 185.12C660.844 185.04 659.444 185 658.19 185C656.99 185 655.604 185.04 654.03 185.12ZM684.382 185.68C683.076 185.68 681.956 185.2 681.022 184.24C680.089 183.28 679.622 181.907 679.622 180.12V168.36L677.302 168.44C677.142 168.44 677.009 168.373 676.902 168.24C676.796 168.08 676.742 167.907 676.742 167.72C676.742 167.48 676.782 167.28 676.862 167.12C676.969 166.933 677.116 166.827 677.302 166.8C678.236 166.613 678.956 166.32 679.462 165.92C679.996 165.493 680.382 165.04 680.622 164.56C680.862 164.053 681.156 163.293 681.502 162.28C681.636 161.933 681.929 161.76 682.382 161.76C682.569 161.76 682.756 161.813 682.942 161.92C683.129 162 683.222 162.133 683.222 162.32L682.942 166.88L687.622 166.6H687.702C688.049 166.6 688.222 166.853 688.222 167.36C688.222 167.653 688.169 167.933 688.062 168.2C687.982 168.44 687.876 168.56 687.742 168.56L683.262 168.44V180.6C683.262 181.48 683.436 182.213 683.782 182.8C684.156 183.387 684.756 183.68 685.582 183.68C686.409 183.68 687.142 183.533 687.782 183.24C688.129 183.107 688.342 183.04 688.422 183.04C688.609 183.04 688.756 183.12 688.862 183.28C688.969 183.413 689.076 183.6 689.182 183.84C689.209 183.893 689.222 183.96 689.222 184.04C689.222 184.147 689.142 184.267 688.982 184.4C688.209 184.907 687.476 185.24 686.782 185.4C686.116 185.587 685.316 185.68 684.382 185.68ZM699.618 185.48C697.485 185.48 695.752 185.107 694.418 184.36C693.085 183.613 692.418 182.56 692.418 181.2C692.418 180.427 692.645 179.8 693.098 179.32C693.578 178.84 694.192 178.6 694.938 178.6C695.365 178.6 695.738 178.72 696.058 178.96C696.405 179.2 696.578 179.387 696.578 179.52C696.578 179.547 696.418 179.72 696.098 180.04C695.805 180.36 695.658 180.813 695.658 181.4C695.658 182.2 696.018 182.84 696.738 183.32C697.485 183.773 698.552 184 699.938 184C701.192 184 702.165 183.733 702.858 183.2C703.578 182.64 703.938 181.867 703.938 180.88C703.938 180.213 703.738 179.667 703.338 179.24C702.938 178.813 702.432 178.48 701.818 178.24C701.232 178 700.405 177.72 699.338 177.4C698.032 177.027 696.965 176.653 696.138 176.28C695.312 175.907 694.605 175.347 694.018 174.6C693.432 173.853 693.138 172.88 693.138 171.68C693.138 170.56 693.485 169.6 694.178 168.8C694.872 168 695.765 167.4 696.858 167C697.978 166.6 699.152 166.4 700.378 166.4C701.952 166.4 703.312 166.733 704.458 167.4C705.632 168.067 706.218 169 706.218 170.2C706.218 170.92 705.992 171.533 705.538 172.04C705.112 172.547 704.538 172.8 703.818 172.8C703.392 172.8 703.005 172.68 702.658 172.44C702.338 172.2 702.178 172.013 702.178 171.88C702.178 171.853 702.285 171.747 702.498 171.56C702.712 171.373 702.898 171.16 703.058 170.92C703.245 170.653 703.338 170.347 703.338 170C703.285 169.28 702.925 168.72 702.258 168.32C701.592 167.92 700.805 167.72 699.898 167.72C698.885 167.72 697.992 167.96 697.218 168.44C696.472 168.893 696.098 169.533 696.098 170.36C696.098 171.107 696.258 171.707 696.578 172.16C696.898 172.587 697.378 172.933 698.018 173.2C698.658 173.467 699.672 173.827 701.058 174.28C702.472 174.733 703.578 175.16 704.378 175.56C705.178 175.933 705.805 176.453 706.258 177.12C706.738 177.76 706.978 178.613 706.978 179.68C706.978 180.773 706.658 181.773 706.018 182.68C705.378 183.56 704.498 184.253 703.378 184.76C702.258 185.24 701.005 185.48 699.618 185.48Z" fill="black"/>
<path d="M239.411 17.737H203.063L186.192 0H172.082L172.619 28.7462L211.198 41.6099V219.419C210.282 219.527 207.379 223.041 231.283 222.783C255.187 222.525 266.837 208.257 266.837 192.355C266.837 150.612 268.004 58.4492 266.837 41.6099C265.67 24.7707 249.994 17.737 239.411 17.737Z" fill="#E1D2FF"/>
<path d="M103.581 0L81.4598 24.6353H43.1392C29.7818 24.6353 18.9622 35.6586 18.9622 49.2705V197.079C18.9622 210.689 29.7818 221.713 43.1392 221.713H236.553C249.91 221.713 260.73 210.689 260.73 197.079V49.2705C260.73 35.6586 249.91 24.6353 236.553 24.6353H198.232L176.111 0H103.581ZM139.846 184.761C106.482 184.761 79.4041 157.17 79.4041 123.175C79.4041 89.1781 106.482 61.5881 139.846 61.5881C173.21 61.5881 200.288 89.1781 200.288 123.175C200.288 157.17 173.21 184.761 139.846 184.761Z" fill="url(#paint1_linear)"/>
<path d="M18.9039 173.508C8.12475 173.508 0 178.749 0 185.697C0 192.644 8.12475 197.885 18.9039 197.885V189.759C11.5849 189.759 7.56204 186.708 7.56204 185.697C7.56204 184.685 11.5849 181.634 18.9039 181.634C26.224 181.634 30.2469 184.685 30.2469 185.697C30.2469 187.944 31.9363 189.759 34.028 189.759C36.1184 189.759 37.809 187.944 37.809 185.697C37.809 178.749 29.683 173.508 18.9039 173.508Z" fill="#E1D2FF"/>
<path d="M18.9039 145.636C8.12475 145.636 0 150.876 0 157.825C0 164.771 8.12475 170.012 18.9039 170.012V161.886C11.5849 161.886 7.56204 158.835 7.56204 157.825C7.56204 156.813 11.5849 153.762 18.9039 153.762C26.224 153.762 30.2469 156.813 30.2469 157.825C30.2469 160.071 31.9363 161.886 34.028 161.886C36.1184 161.886 37.809 160.071 37.809 157.825C37.809 150.876 29.683 145.636 18.9039 145.636Z" fill="#E1D2FF"/>
<path d="M18.9039 118.103C8.12475 118.103 0 123.344 0 130.292C0 137.239 8.12475 142.479 18.9039 142.479V134.353C11.5849 134.353 7.56204 131.302 7.56204 130.292C7.56204 129.28 11.5849 126.229 18.9039 126.229C26.224 126.229 30.2469 129.28 30.2469 130.292C30.2469 132.538 31.9363 134.353 34.028 134.353C36.1184 134.353 37.809 132.538 37.809 130.292C37.809 123.344 29.683 118.103 18.9039 118.103Z" fill="#E1D2FF"/>
<path d="M18.9039 94.3092C8.12475 94.3092 0 99.5499 0 106.498C0 113.445 8.12475 118.686 18.9039 118.686V110.56C11.5849 110.56 7.56204 107.509 7.56204 106.498C7.56204 105.486 11.5849 102.435 18.9039 102.435C26.224 102.435 30.2469 105.486 30.2469 106.498C30.2469 108.745 31.9363 110.56 34.028 110.56C36.1184 110.56 37.809 108.745 37.809 106.498C37.809 99.5499 29.683 94.3092 18.9039 94.3092Z" fill="#E1D2FF"/>
<path d="M18.9039 70.5155C8.12475 70.5155 0 75.7562 0 82.7045C0 89.6514 8.12475 94.8921 18.9039 94.8921V86.7661C11.5849 86.7661 7.56204 83.7149 7.56204 82.7045C7.56204 81.6927 11.5849 78.6415 18.9039 78.6415C26.224 78.6415 30.2469 81.6927 30.2469 82.7045C30.2469 84.9511 31.9363 86.7661 34.028 86.7661C36.1184 86.7661 37.809 84.9511 37.809 82.7045C37.809 75.7562 29.683 70.5155 18.9039 70.5155Z" fill="#E1D2FF"/>
<path d="M18.9039 50.1209C8.12475 50.1209 0 55.3616 0 62.3099C0 69.2568 8.12475 74.4975 18.9039 74.4975V66.3715C11.5849 66.3715 7.56204 63.3203 7.56204 62.3099C7.56204 61.2981 11.5849 58.2469 18.9039 58.2469C26.224 58.2469 30.2469 61.2981 30.2469 62.3099C30.2469 64.5565 31.9363 66.3715 34.028 66.3715C36.1184 66.3715 37.809 64.5565 37.809 62.3099C37.809 55.3616 29.683 50.1209 18.9039 50.1209Z" fill="#E1D2FF"/>
<ellipse cx="139.858" cy="123.28" rx="43.8035" ry="44.5974" fill="url(#paint2_linear)"/>
<defs>
<linearGradient id="paint0_linear" x1="554.5" y1="29" x2="554.5" y2="163" gradientUnits="userSpaceOnUse">
<stop stop-color="#5E17EB"/>
<stop offset="1" stop-color="#30008F"/>
</linearGradient>
<linearGradient id="paint1_linear" x1="139.846" y1="0" x2="139.846" y2="221.713" gradientUnits="userSpaceOnUse">
<stop stop-color="#5E17EB"/>
<stop offset="1" stop-color="#30008F"/>
</linearGradient>
<linearGradient id="paint2_linear" x1="139.858" y1="78.6825" x2="139.858" y2="167.877" gradientUnits="userSpaceOnUse">
<stop stop-color="#5E17EB"/>
<stop offset="1" stop-color="#30008F"/>
</linearGradient>
</defs>
</svg>
